<?xml version="1.0" encoding="UTF-8" standalone="no"?>
<!DOCTYPE svg PUBLIC "-//W3C//DTD SVG 1.1//EN" "http://www.w3.org/Graphics/SVG/1.1/DTD/svg11.dtd">
<svg width="100%" height="100%" viewBox="0 0 240 416" version="1.1" xmlns="http://www.w3.org/2000/svg" xmlns:xlink="http://www.w3.org/1999/xlink" xml:space="preserve" xmlns:serif="http://www.serif.com/" style="fill-rule:evenodd;clip-rule:evenodd;stroke-linejoin:round;stroke-miterlimit:2;">
    <path d="M240,210.001L240,415L121.731,415C132.492,396.349 240,210.001 240,210.001L240,210.001ZM0,210.001L0,210.001C10.241,227.752 108.033,397.258 118.269,415L0,415L0,210.001ZM1.731,209L238.269,209C227.508,227.651 120,413.999 120,413.999L1.731,209ZM1.731,207L120,2.001C130.241,19.752 228.033,189.258 238.269,207L1.731,207ZM0,1L118.269,1C118.269,1 0,205.999 0,205.999L0,205.999L0,1ZM240,1L240,205.999L121.731,1L240,1Z" style="fill:rgb(72,72,72);"/>
</svg>
