<?xml version="1.0" encoding="UTF-8" standalone="no"?>
<!DOCTYPE svg PUBLIC "-//W3C//DTD SVG 1.1//EN" "http://www.w3.org/Graphics/SVG/1.1/DTD/svg11.dtd">
<svg width="100%" height="100%" viewBox="0 0 748 408" version="1.1" xmlns="http://www.w3.org/2000/svg" xmlns:xlink="http://www.w3.org/1999/xlink" xml:space="preserve" xmlns:serif="http://www.serif.com/" style="fill-rule:evenodd;clip-rule:evenodd;stroke-miterlimit:2;">
    <g transform="matrix(1,0,0,1,-1.48192,0.677051)">
        <g transform="matrix(37.3903,0,0,20.3479,0,0)">
            <g transform="matrix(1,0,0,1,-0.0267449,0)">
                <g transform="matrix(0.604954,0,0,1.11163,-3.04644,-0.551289)">
                    <path d="M5.267,13.591L5.267,12.733L8.956,12.733L8.956,13.591L7.632,13.591L7.632,17.097L6.592,17.097L6.592,13.591L5.267,13.591Z" style="fill-rule:nonzero;stroke:white;stroke-width:0.07px;"/>
                    <g transform="matrix(0.0442098,0,0,0.0442098,4.85898,0.495928)">
                        <path d="M105.214,344.201L105.214,344.818C105.214,347.838 105.806,350.481 106.992,352.746C108.178,355.011 109.863,356.768 112.048,358.018C114.233,359.268 116.839,359.893 119.866,359.893C121.928,359.893 123.812,359.602 125.518,359.021C127.224,358.439 128.691,357.584 129.919,356.456C131.146,355.329 132.062,353.955 132.666,352.336L154.295,352.953C153.396,357.811 151.426,362.031 148.387,365.614C145.347,369.196 141.376,371.972 136.473,373.942C131.57,375.911 125.88,376.896 119.402,376.896C111.653,376.896 104.981,375.365 99.387,372.303C93.794,369.241 89.492,364.859 86.481,359.156C83.47,353.453 81.965,346.655 81.965,338.764C81.965,331.13 83.477,324.446 86.5,318.71C89.524,312.975 93.784,308.509 99.281,305.312C104.779,302.115 111.255,300.517 118.709,300.517C123.952,300.517 128.762,301.34 133.138,302.985C137.514,304.63 141.296,307.057 144.483,310.267C147.67,313.477 150.141,317.43 151.895,322.127C153.649,326.825 154.527,332.216 154.527,338.302L154.527,344.201L105.214,344.201ZM105.225,330.514L132.627,330.514C132.602,327.981 132.006,325.739 130.839,323.785C129.673,321.832 128.086,320.299 126.077,319.188C124.069,318.076 121.767,317.52 119.171,317.52C116.543,317.52 114.18,318.11 112.082,319.289C109.983,320.468 108.327,322.057 107.113,324.055C105.954,325.962 105.324,328.115 105.225,330.514Z" style="fill-rule:nonzero;stroke:white;stroke-width:1.5px;"/>
                    </g>
                    <g transform="matrix(1,0,0,1,-0.0884197,0)">
                        <path d="M13.807,17.158C13.462,17.158 13.166,17.087 12.919,16.945C12.673,16.803 12.483,16.605 12.352,16.352C12.22,16.098 12.154,15.804 12.154,15.471C12.154,15.136 12.22,14.842 12.353,14.588C12.485,14.334 12.675,14.136 12.921,13.995C13.167,13.853 13.462,13.782 13.806,13.782C14.108,13.782 14.372,13.837 14.597,13.946C14.822,14.056 14.998,14.21 15.125,14.41C15.252,14.609 15.319,14.843 15.326,15.111L14.353,15.111C14.332,14.944 14.276,14.813 14.183,14.717C14.091,14.622 13.97,14.574 13.821,14.574C13.7,14.574 13.594,14.608 13.503,14.676C13.412,14.743 13.342,14.843 13.291,14.974C13.241,15.106 13.216,15.268 13.216,15.461C13.216,15.654 13.241,15.818 13.291,15.95C13.341,16.082 13.412,16.182 13.502,16.25C13.593,16.318 13.699,16.352 13.821,16.352C13.916,16.352 14.001,16.331 14.076,16.29C14.151,16.248 14.212,16.188 14.261,16.108C14.309,16.027 14.34,15.93 14.353,15.815L15.326,15.815C15.317,16.085 15.25,16.32 15.125,16.522C15.001,16.724 14.827,16.88 14.603,16.992C14.38,17.103 14.115,17.158 13.807,17.158Z" style="fill-rule:nonzero;stroke:white;stroke-width:0.07px;"/>
                    </g>
                    <g transform="matrix(1,0,0,1,-0.0442098,0)">
                        <path d="M16.671,15.231L16.671,17.097L15.629,17.097L15.629,12.733L16.637,12.733L16.637,14.424L16.673,14.424C16.747,14.223 16.868,14.066 17.037,13.952C17.205,13.839 17.411,13.782 17.656,13.782C17.886,13.782 18.086,13.833 18.256,13.935C18.427,14.036 18.559,14.179 18.653,14.364C18.748,14.548 18.794,14.764 18.793,15.011L18.793,17.097L17.752,17.097L17.752,15.215C17.753,15.034 17.707,14.892 17.615,14.789C17.523,14.687 17.393,14.636 17.225,14.636C17.116,14.636 17.019,14.659 16.936,14.707C16.853,14.754 16.788,14.822 16.742,14.911C16.696,15 16.672,15.106 16.671,15.231Z" style="fill-rule:nonzero;stroke:white;stroke-width:0.07px;"/>
                    </g>
                    <g transform="matrix(1,0,0,1,-0.0442098,0)">
                        <path d="M20.216,15.231L20.216,17.097L19.175,17.097L19.175,13.824L20.165,13.824L20.165,14.424L20.201,14.424C20.273,14.225 20.397,14.068 20.572,13.954C20.747,13.839 20.955,13.782 21.196,13.782C21.426,13.782 21.626,13.833 21.796,13.936C21.966,14.038 22.098,14.182 22.192,14.366C22.286,14.55 22.333,14.765 22.332,15.011L22.332,17.097L21.29,17.097L21.29,15.215C21.291,15.034 21.245,14.892 21.152,14.79C21.059,14.687 20.93,14.636 20.765,14.636C20.656,14.636 20.56,14.659 20.477,14.707C20.395,14.754 20.331,14.822 20.286,14.911C20.241,15 20.217,15.106 20.216,15.231Z" style="fill-rule:nonzero;stroke:white;stroke-width:0.07px;"/>
                    </g>
                    <path d="M24.213,17.158C23.87,17.158 23.575,17.088 23.329,16.947C23.082,16.805 22.892,16.608 22.759,16.355C22.626,16.101 22.56,15.807 22.56,15.471C22.56,15.135 22.626,14.84 22.759,14.586C22.892,14.332 23.082,14.135 23.329,13.994C23.575,13.852 23.87,13.782 24.213,13.782C24.557,13.782 24.852,13.852 25.098,13.994C25.345,14.135 25.535,14.332 25.668,14.586C25.8,14.84 25.867,15.135 25.867,15.471C25.867,15.807 25.8,16.101 25.668,16.355C25.535,16.608 25.345,16.805 25.098,16.947C24.852,17.088 24.557,17.158 24.213,17.158ZM24.22,16.373C24.345,16.373 24.45,16.334 24.537,16.258C24.624,16.182 24.691,16.075 24.736,15.939C24.782,15.802 24.805,15.644 24.805,15.464C24.805,15.283 24.782,15.124 24.736,14.988C24.691,14.852 24.624,14.746 24.537,14.669C24.45,14.592 24.345,14.554 24.22,14.554C24.091,14.554 23.982,14.592 23.893,14.669C23.804,14.746 23.736,14.852 23.691,14.988C23.645,15.124 23.622,15.283 23.622,15.464C23.622,15.644 23.645,15.802 23.691,15.939C23.736,16.075 23.804,16.182 23.893,16.258C23.982,16.334 24.091,16.373 24.22,16.373Z" style="fill-rule:nonzero;stroke:white;stroke-width:0.07px;"/>
                    <g transform="matrix(1,0,0,1,-0.0442098,0)">
                        <rect x="26.266" y="12.733" width="1.041" height="4.364" style="fill-rule:nonzero;stroke:white;stroke-width:0.07px;"/>
                    </g>
                    <g transform="matrix(1,0,0,1,-0.0442098,0)">
                        <path d="M29.216,17.158C28.873,17.158 28.578,17.088 28.331,16.947C28.085,16.805 27.895,16.608 27.762,16.355C27.629,16.101 27.563,15.807 27.563,15.471C27.563,15.135 27.629,14.84 27.762,14.586C27.895,14.332 28.085,14.135 28.331,13.994C28.578,13.852 28.873,13.782 29.216,13.782C29.559,13.782 29.854,13.852 30.101,13.994C30.348,14.135 30.538,14.332 30.67,14.586C30.803,14.84 30.87,15.135 30.87,15.471C30.87,15.807 30.803,16.101 30.67,16.355C30.538,16.608 30.348,16.805 30.101,16.947C29.854,17.088 29.559,17.158 29.216,17.158ZM29.223,16.373C29.348,16.373 29.453,16.334 29.54,16.258C29.627,16.182 29.693,16.075 29.739,15.939C29.785,15.802 29.808,15.644 29.808,15.464C29.808,15.283 29.785,15.124 29.739,14.988C29.693,14.852 29.627,14.746 29.54,14.669C29.453,14.592 29.348,14.554 29.223,14.554C29.094,14.554 28.985,14.592 28.896,14.669C28.807,14.746 28.739,14.852 28.693,14.988C28.648,15.124 28.625,15.283 28.625,15.464C28.625,15.644 28.648,15.802 28.693,15.939C28.739,16.075 28.807,16.182 28.896,16.258C28.985,16.334 29.094,16.373 29.223,16.373Z" style="fill-rule:nonzero;stroke:white;stroke-width:0.07px;"/>
                    </g>
                    <g transform="matrix(1,0,0,1,-0.0442098,0)">
                        <path d="M32.794,18.393C32.483,18.393 32.217,18.349 31.995,18.262C31.773,18.176 31.599,18.057 31.473,17.907C31.347,17.757 31.271,17.586 31.245,17.395L32.232,17.339C32.25,17.407 32.284,17.465 32.334,17.515C32.385,17.564 32.451,17.603 32.532,17.63C32.614,17.656 32.71,17.67 32.821,17.67C32.996,17.67 33.14,17.627 33.255,17.543C33.369,17.458 33.427,17.311 33.427,17.102L33.427,16.526L33.391,16.526C33.349,16.627 33.287,16.717 33.203,16.796C33.119,16.875 33.015,16.938 32.891,16.984C32.767,17.03 32.624,17.053 32.463,17.053C32.224,17.053 32.006,16.997 31.807,16.886C31.609,16.774 31.451,16.601 31.333,16.366C31.215,16.131 31.156,15.828 31.156,15.457C31.156,15.074 31.217,14.759 31.339,14.511C31.461,14.264 31.621,14.08 31.819,13.961C32.017,13.841 32.23,13.782 32.458,13.782C32.63,13.782 32.778,13.811 32.901,13.87C33.024,13.929 33.125,14.005 33.204,14.097C33.284,14.189 33.344,14.285 33.386,14.385L33.416,14.385L33.416,13.824L34.454,13.824L34.454,17.109C34.454,17.387 34.385,17.621 34.245,17.812C34.105,18.002 33.911,18.146 33.661,18.245C33.412,18.343 33.123,18.393 32.794,18.393ZM32.825,16.294C32.952,16.294 33.06,16.261 33.15,16.194C33.239,16.127 33.308,16.031 33.356,15.906C33.404,15.781 33.428,15.631 33.428,15.456C33.428,15.279 33.404,15.126 33.357,14.998C33.309,14.869 33.24,14.77 33.15,14.7C33.061,14.63 32.952,14.595 32.825,14.595C32.696,14.595 32.587,14.63 32.498,14.701C32.409,14.772 32.341,14.872 32.294,15.001C32.248,15.13 32.225,15.282 32.225,15.456C32.225,15.631 32.248,15.781 32.295,15.906C32.342,16.031 32.41,16.127 32.499,16.194C32.588,16.261 32.696,16.294 32.825,16.294Z" style="fill-rule:nonzero;stroke:white;stroke-width:0.07px;"/>
                    </g>
                    <path d="M35.562,18.324C35.437,18.324 35.319,18.315 35.208,18.296C35.097,18.276 35.002,18.251 34.923,18.22L35.153,17.464C35.255,17.497 35.347,17.517 35.43,17.523C35.513,17.529 35.585,17.517 35.646,17.485C35.706,17.453 35.753,17.396 35.786,17.315L35.825,17.216L34.662,13.824L35.753,13.824L36.357,16.16L36.391,16.16L37.001,13.824L38.099,13.824L36.866,17.411C36.806,17.589 36.722,17.747 36.613,17.884C36.504,18.022 36.364,18.13 36.193,18.208C36.022,18.285 35.812,18.324 35.562,18.324Z" style="fill-rule:nonzero;stroke:white;stroke-width:0.07px;"/>
                </g>
                <g transform="matrix(0.604954,0,0,1.11163,-3.13306,-1.03756)">
                    <path d="M8.274,8.158C8.25,8.07 8.215,7.991 8.167,7.922C8.12,7.853 8.063,7.794 7.995,7.746C7.927,7.697 7.849,7.66 7.76,7.635C7.672,7.61 7.575,7.598 7.47,7.598C7.259,7.598 7.076,7.649 6.922,7.752C6.768,7.855 6.649,8.004 6.565,8.199C6.482,8.394 6.44,8.631 6.44,8.908C6.44,9.189 6.481,9.427 6.562,9.625C6.643,9.822 6.76,9.973 6.913,10.077C7.067,10.181 7.252,10.233 7.47,10.233C7.664,10.233 7.828,10.201 7.963,10.138C8.097,10.074 8.198,9.984 8.268,9.867C8.337,9.751 8.371,9.614 8.371,9.456L8.567,9.479L7.507,9.479L7.507,8.711L9.387,8.711L9.387,9.289C9.387,9.679 9.305,10.013 9.14,10.292C8.974,10.57 8.747,10.784 8.458,10.933C8.168,11.082 7.837,11.157 7.463,11.157C7.046,11.157 6.68,11.066 6.365,10.886C6.049,10.705 5.804,10.448 5.627,10.114C5.451,9.779 5.363,9.382 5.363,8.922C5.363,8.564 5.416,8.247 5.523,7.969C5.63,7.691 5.778,7.455 5.969,7.262C6.16,7.069 6.382,6.923 6.634,6.823C6.886,6.724 7.158,6.674 7.449,6.674C7.702,6.674 7.937,6.71 8.155,6.782C8.373,6.855 8.566,6.957 8.734,7.089C8.903,7.222 9.039,7.379 9.144,7.56C9.25,7.742 9.315,7.941 9.341,8.158L8.274,8.158Z" style="fill-rule:nonzero;stroke:white;stroke-width:0.07px;"/>
                    <g transform="matrix(1,0,0,1,-0.132629,0)">
                        <path d="M9.868,11.097L9.868,7.824L10.879,7.824L10.879,8.421L10.913,8.421C10.973,8.204 11.07,8.044 11.205,7.938C11.34,7.833 11.498,7.78 11.677,7.78C11.725,7.78 11.775,7.783 11.826,7.79C11.877,7.796 11.925,7.806 11.968,7.818L11.968,8.723C11.918,8.706 11.853,8.693 11.773,8.683C11.692,8.673 11.621,8.668 11.559,8.668C11.435,8.668 11.324,8.695 11.226,8.75C11.128,8.805 11.05,8.881 10.994,8.979C10.938,9.076 10.909,9.19 10.909,9.319L10.909,11.097L9.868,11.097Z" style="fill-rule:nonzero;stroke:white;stroke-width:0.07px;"/>
                    </g>
                    <g transform="matrix(1,0,0,1,-0.0442098,0)">
                        <path d="M13.023,11.153C12.815,11.153 12.63,11.118 12.468,11.047C12.306,10.976 12.179,10.869 12.086,10.727C11.994,10.585 11.948,10.405 11.948,10.189C11.948,10.008 11.979,9.855 12.043,9.73C12.107,9.605 12.195,9.503 12.307,9.425C12.419,9.347 12.548,9.287 12.695,9.247C12.841,9.206 12.997,9.178 13.163,9.164C13.349,9.148 13.499,9.13 13.614,9.111C13.728,9.091 13.81,9.064 13.862,9.027C13.913,8.99 13.938,8.939 13.938,8.873L13.938,8.862C13.938,8.752 13.901,8.667 13.826,8.608C13.751,8.548 13.649,8.518 13.521,8.518C13.383,8.518 13.272,8.548 13.189,8.608C13.105,8.669 13.052,8.751 13.03,8.856L12.069,8.822C12.097,8.623 12.171,8.445 12.29,8.288C12.408,8.131 12.572,8.007 12.78,7.917C12.987,7.827 13.238,7.782 13.531,7.782C13.74,7.782 13.932,7.806 14.108,7.855C14.285,7.904 14.438,7.974 14.568,8.068C14.698,8.161 14.8,8.275 14.872,8.41C14.944,8.545 14.98,8.699 14.98,8.873L14.98,11.097L14,11.097L14,10.64L13.974,10.64C13.915,10.752 13.84,10.846 13.75,10.923C13.66,10.999 13.554,11.057 13.433,11.095C13.311,11.134 13.175,11.153 13.023,11.153ZM13.345,10.47C13.457,10.47 13.558,10.447 13.648,10.402C13.739,10.357 13.811,10.294 13.865,10.214C13.918,10.133 13.945,10.04 13.945,9.933L13.945,9.623C13.916,9.638 13.88,9.652 13.838,9.665C13.796,9.679 13.75,9.691 13.7,9.702C13.65,9.713 13.599,9.723 13.547,9.732C13.495,9.74 13.445,9.749 13.396,9.756C13.298,9.77 13.214,9.794 13.145,9.827C13.077,9.861 13.024,9.903 12.988,9.955C12.952,10.007 12.934,10.068 12.934,10.139C12.934,10.247 12.973,10.329 13.05,10.385C13.127,10.442 13.226,10.47 13.345,10.47Z" style="fill-rule:nonzero;stroke:white;stroke-width:0.07px;"/>
                    </g>
                    <g transform="matrix(1,0,0,1,-0.132629,0)">
                        <path d="M15.484,12.324L15.484,7.824L16.516,7.824L16.516,8.385L16.548,8.385C16.59,8.285 16.65,8.189 16.729,8.097C16.808,8.005 16.909,7.929 17.032,7.87C17.154,7.811 17.302,7.782 17.474,7.782C17.702,7.782 17.915,7.842 18.113,7.961C18.311,8.081 18.471,8.265 18.593,8.513C18.715,8.761 18.776,9.078 18.776,9.462C18.776,9.834 18.717,10.145 18.6,10.394C18.483,10.644 18.325,10.831 18.127,10.957C17.929,11.082 17.709,11.145 17.469,11.145C17.304,11.145 17.161,11.118 17.039,11.063C16.918,11.009 16.817,10.938 16.736,10.85C16.654,10.762 16.592,10.668 16.548,10.567L16.526,10.567L16.526,12.324L15.484,12.324ZM16.504,9.461C16.504,9.637 16.528,9.791 16.576,9.921C16.624,10.051 16.693,10.152 16.782,10.224C16.872,10.296 16.98,10.332 17.107,10.332C17.236,10.332 17.344,10.296 17.433,10.224C17.522,10.152 17.59,10.051 17.637,9.921C17.684,9.79 17.707,9.637 17.707,9.461C17.707,9.285 17.684,9.133 17.638,9.003C17.591,8.873 17.523,8.773 17.434,8.702C17.345,8.63 17.236,8.595 17.107,8.595C16.98,8.595 16.871,8.63 16.782,8.7C16.692,8.77 16.623,8.87 16.575,8.999C16.528,9.128 16.504,9.282 16.504,9.461Z" style="fill-rule:nonzero;stroke:white;stroke-width:0.07px;"/>
                    </g>
                    <g transform="matrix(1,0,0,1,-0.132629,0)">
                        <path d="M20.182,9.231L20.182,11.097L19.141,11.097L19.141,6.733L20.148,6.733L20.148,8.424L20.184,8.424C20.258,8.223 20.38,8.066 20.548,7.952C20.716,7.839 20.923,7.782 21.167,7.782C21.397,7.782 21.597,7.833 21.768,7.935C21.938,8.036 22.071,8.179 22.165,8.364C22.259,8.548 22.305,8.764 22.304,9.011L22.304,11.097L21.263,11.097L21.263,9.215C21.264,9.034 21.218,8.892 21.126,8.789C21.034,8.687 20.904,8.636 20.736,8.636C20.627,8.636 20.531,8.659 20.447,8.707C20.364,8.754 20.299,8.822 20.253,8.911C20.207,9 20.183,9.106 20.182,9.231Z" style="fill-rule:nonzero;stroke:white;stroke-width:0.07px;"/>
                    </g>
                    <g transform="matrix(1,0,0,1,-0.0884197,0)">
                        <path d="M22.686,11.097L22.686,7.824L23.728,7.824L23.728,11.097L22.686,11.097ZM23.209,7.443C23.061,7.443 22.935,7.394 22.83,7.296C22.725,7.199 22.673,7.082 22.673,6.945C22.673,6.808 22.725,6.691 22.83,6.593C22.935,6.496 23.061,6.447 23.208,6.447C23.356,6.447 23.482,6.496 23.586,6.593C23.691,6.691 23.743,6.808 23.743,6.945C23.743,7.082 23.691,7.199 23.586,7.296C23.482,7.394 23.356,7.443 23.209,7.443Z" style="fill-rule:nonzero;stroke:white;stroke-width:0.07px;"/>
                    </g>
                    <g transform="matrix(1,0,0,1,-0.0884197,0)">
                        <path d="M25.637,11.158C25.291,11.158 24.995,11.087 24.749,10.945C24.502,10.803 24.313,10.605 24.181,10.352C24.049,10.098 23.983,9.804 23.983,9.471C23.983,9.136 24.05,8.842 24.182,8.588C24.315,8.334 24.504,8.136 24.751,7.995C24.997,7.853 25.292,7.782 25.635,7.782C25.938,7.782 26.202,7.837 26.427,7.946C26.652,8.056 26.828,8.21 26.955,8.41C27.082,8.609 27.149,8.843 27.155,9.111L26.182,9.111C26.162,8.944 26.106,8.813 26.013,8.717C25.92,8.622 25.799,8.574 25.65,8.574C25.529,8.574 25.423,8.608 25.333,8.676C25.242,8.743 25.171,8.843 25.121,8.974C25.07,9.106 25.045,9.268 25.045,9.461C25.045,9.654 25.07,9.818 25.12,9.95C25.171,10.082 25.241,10.182 25.332,10.25C25.423,10.318 25.529,10.352 25.65,10.352C25.746,10.352 25.831,10.331 25.906,10.29C25.98,10.248 26.042,10.188 26.09,10.108C26.138,10.027 26.169,9.93 26.182,9.815L27.155,9.815C27.146,10.085 27.08,10.32 26.955,10.522C26.83,10.724 26.656,10.88 26.433,10.992C26.21,11.103 25.944,11.158 25.637,11.158Z" style="fill-rule:nonzero;stroke:white;stroke-width:0.07px;"/>
                    </g>
                    <g transform="matrix(1,0,0,1,-0.0442098,0)">
                        <path d="M30.316,8.823L29.359,8.849C29.349,8.78 29.322,8.72 29.278,8.667C29.234,8.614 29.177,8.572 29.107,8.542C29.036,8.511 28.955,8.496 28.863,8.496C28.743,8.496 28.64,8.52 28.556,8.568C28.471,8.616 28.429,8.681 28.431,8.764C28.429,8.827 28.455,8.883 28.508,8.93C28.561,8.978 28.657,9.015 28.795,9.043L29.424,9.162C29.751,9.225 29.994,9.329 30.154,9.474C30.314,9.618 30.395,9.81 30.396,10.049C30.395,10.273 30.329,10.468 30.197,10.634C30.066,10.801 29.887,10.93 29.659,11.021C29.432,11.113 29.172,11.158 28.879,11.158C28.412,11.158 28.044,11.062 27.775,10.87C27.505,10.677 27.352,10.419 27.314,10.095L28.344,10.071C28.365,10.189 28.424,10.279 28.519,10.342C28.614,10.404 28.736,10.436 28.884,10.436C29.017,10.436 29.126,10.411 29.21,10.361C29.294,10.312 29.336,10.246 29.337,10.163C29.336,10.09 29.304,10.031 29.239,9.986C29.175,9.941 29.075,9.906 28.94,9.88L28.367,9.773C28.04,9.712 27.796,9.601 27.636,9.44C27.475,9.28 27.395,9.074 27.396,8.823C27.395,8.604 27.453,8.418 27.571,8.262C27.689,8.107 27.857,7.988 28.074,7.906C28.292,7.823 28.548,7.782 28.843,7.782C29.286,7.782 29.636,7.874 29.891,8.06C30.147,8.245 30.289,8.499 30.316,8.823Z" style="fill-rule:nonzero;stroke:white;stroke-width:0.07px;"/>
                    </g>
                </g>
                <g transform="matrix(0.604954,0,0,1.11163,-3.13306,-0.447821)">
                    <rect x="5.411" y="0.733" width="1.053" height="4.364" style="fill-rule:nonzero;stroke:white;stroke-width:0.07px;"/>
                    <g transform="matrix(1,0,0,1,-0.132629,0)">
                        <path d="M8.037,3.231L8.037,5.097L6.996,5.097L6.996,1.824L7.986,1.824L7.986,2.424L8.022,2.424C8.094,2.225 8.218,2.068 8.393,1.954C8.568,1.839 8.776,1.782 9.017,1.782C9.247,1.782 9.447,1.833 9.617,1.936C9.787,2.038 9.919,2.182 10.013,2.366C10.107,2.55 10.154,2.765 10.153,3.011L10.153,5.097L9.111,5.097L9.111,3.215C9.112,3.034 9.066,2.892 8.973,2.79C8.88,2.687 8.751,2.636 8.586,2.636C8.477,2.636 8.381,2.659 8.298,2.707C8.216,2.754 8.152,2.822 8.107,2.911C8.062,3 8.038,3.106 8.037,3.231Z" style="fill-rule:nonzero;stroke:white;stroke-width:0.07px;"/>
                    </g>
                    <g transform="matrix(0.0442098,0,0,0.0442098,5.17901,0.40285)">
                        <path d="M148.936,32.153L162.276,32.153L162.276,49.503L148.936,49.503L148.936,82.893C148.936,84.358 149.172,85.526 149.645,86.397C150.117,87.268 150.798,87.891 151.688,88.267C152.578,88.643 153.653,88.83 154.912,88.83C155.805,88.83 156.763,88.739 157.785,88.556C158.807,88.373 159.571,88.22 160.079,88.098L163.626,105.101C162.521,105.442 160.95,105.848 158.913,106.32C156.876,106.792 154.437,107.093 151.597,107.221C146.07,107.478 141.342,106.833 137.413,105.284C133.484,103.736 130.483,101.303 128.41,97.987C126.338,94.672 125.327,90.514 125.379,85.515L125.379,49.503L115.585,49.503L115.585,32.153L125.379,32.153L125.379,14.418L148.936,14.418L148.936,32.153Z" style="fill-rule:nonzero;stroke:white;stroke-width:1.5px;"/>
                    </g>
                    <g transform="matrix(0.0442098,0,0,0.0442098,5.17901,0.40285)">
                        <path d="M189.496,74.874L189.496,75.49C189.496,78.51 190.089,81.153 191.275,83.418C192.461,85.683 194.146,87.441 196.331,88.691C198.516,89.941 201.122,90.565 204.148,90.565C206.211,90.565 208.095,90.275 209.801,89.693C211.507,89.111 212.974,88.257 214.201,87.129C215.429,86.001 216.345,84.628 216.949,83.009L238.578,83.625C237.679,88.484 235.709,92.704 232.669,96.286C229.63,99.869 225.659,102.645 220.756,104.614C215.853,106.584 210.163,107.568 203.685,107.568C195.935,107.568 189.264,106.037 183.67,102.976C178.077,99.914 173.774,95.531 170.764,89.828C167.753,84.125 166.248,77.328 166.248,69.437C166.248,61.803 167.759,55.118 170.783,49.383C173.806,43.648 178.067,39.182 183.564,35.985C189.062,32.788 195.538,31.189 202.992,31.189C208.235,31.189 213.045,32.012 217.421,33.657C221.797,35.302 225.579,37.73 228.766,40.94C231.953,44.149 234.424,48.103 236.178,52.8C237.932,57.497 238.809,62.889 238.809,68.974L238.809,74.874L189.496,74.874ZM189.508,61.186L216.91,61.186C216.885,58.654 216.289,56.411 215.122,54.458C213.956,52.504 212.368,50.972 210.36,49.86C208.352,48.748 206.05,48.192 203.454,48.192C200.826,48.192 198.463,48.782 196.365,49.961C194.266,51.141 192.61,52.729 191.396,54.728C190.237,56.635 189.607,58.788 189.508,61.186Z" style="fill-rule:nonzero;stroke:white;stroke-width:1.5px;"/>
                    </g>
                    <g transform="matrix(1,0,0,1,-0.0442098,0)">
                        <path d="M16.149,5.097L16.149,1.824L17.16,1.824L17.16,2.421L17.194,2.421C17.254,2.204 17.351,2.044 17.486,1.938C17.622,1.833 17.779,1.78 17.958,1.78C18.006,1.78 18.056,1.783 18.107,1.79C18.159,1.796 18.206,1.806 18.249,1.818L18.249,2.723C18.199,2.706 18.134,2.693 18.054,2.683C17.974,2.673 17.902,2.668 17.84,2.668C17.716,2.668 17.605,2.695 17.507,2.75C17.409,2.805 17.332,2.881 17.275,2.979C17.219,3.076 17.191,3.19 17.191,3.319L17.191,5.097L16.149,5.097Z" style="fill-rule:nonzero;stroke:white;stroke-width:0.07px;"/>
                    </g>
                    <path d="M19.304,5.153C19.096,5.153 18.911,5.118 18.749,5.047C18.587,4.976 18.46,4.869 18.368,4.727C18.275,4.585 18.229,4.405 18.229,4.189C18.229,4.008 18.261,3.855 18.324,3.73C18.388,3.605 18.476,3.503 18.588,3.425C18.7,3.347 18.83,3.287 18.976,3.247C19.122,3.206 19.279,3.178 19.444,3.164C19.63,3.148 19.781,3.13 19.895,3.111C20.009,3.091 20.092,3.064 20.143,3.027C20.194,2.99 20.22,2.939 20.22,2.873L20.22,2.862C20.22,2.752 20.182,2.667 20.107,2.608C20.032,2.548 19.93,2.518 19.802,2.518C19.664,2.518 19.554,2.548 19.47,2.608C19.387,2.669 19.334,2.751 19.311,2.856L18.35,2.822C18.378,2.623 18.452,2.445 18.571,2.288C18.69,2.131 18.853,2.007 19.061,1.917C19.269,1.827 19.519,1.782 19.812,1.782C20.021,1.782 20.213,1.806 20.39,1.855C20.566,1.904 20.719,1.974 20.849,2.068C20.98,2.161 21.081,2.275 21.153,2.41C21.225,2.545 21.261,2.699 21.261,2.873L21.261,5.097L20.281,5.097L20.281,4.64L20.256,4.64C20.196,4.752 20.122,4.846 20.031,4.923C19.941,4.999 19.835,5.057 19.714,5.095C19.593,5.134 19.456,5.153 19.304,5.153ZM19.627,4.47C19.738,4.47 19.839,4.447 19.929,4.402C20.02,4.357 20.092,4.294 20.146,4.214C20.2,4.133 20.227,4.04 20.227,3.933L20.227,3.623C20.197,3.638 20.162,3.652 20.119,3.665C20.077,3.679 20.031,3.691 19.981,3.702C19.931,3.713 19.88,3.723 19.828,3.732C19.776,3.74 19.726,3.749 19.678,3.756C19.579,3.77 19.495,3.794 19.426,3.827C19.358,3.861 19.306,3.903 19.27,3.955C19.234,4.007 19.216,4.068 19.216,4.139C19.216,4.247 19.254,4.329 19.331,4.385C19.409,4.442 19.507,4.47 19.627,4.47Z" style="fill-rule:nonzero;stroke:white;stroke-width:0.07px;"/>
                    <g transform="matrix(1,0,0,1,-0.0442098,0)">
                        <path d="M23.293,5.158C22.948,5.158 22.652,5.087 22.405,4.945C22.158,4.803 21.969,4.605 21.837,4.352C21.705,4.098 21.64,3.804 21.64,3.471C21.64,3.136 21.706,2.842 21.838,2.588C21.971,2.334 22.16,2.136 22.407,1.995C22.653,1.853 22.948,1.782 23.291,1.782C23.594,1.782 23.858,1.837 24.083,1.946C24.308,2.056 24.484,2.21 24.611,2.41C24.738,2.609 24.805,2.843 24.812,3.111L23.838,3.111C23.818,2.944 23.762,2.813 23.669,2.717C23.576,2.622 23.456,2.574 23.307,2.574C23.186,2.574 23.08,2.608 22.989,2.676C22.898,2.743 22.828,2.843 22.777,2.974C22.727,3.106 22.701,3.268 22.701,3.461C22.701,3.654 22.727,3.818 22.777,3.95C22.827,4.082 22.897,4.182 22.988,4.25C23.079,4.318 23.185,4.352 23.307,4.352C23.402,4.352 23.487,4.331 23.562,4.29C23.637,4.248 23.698,4.188 23.746,4.108C23.795,4.027 23.825,3.93 23.838,3.815L24.812,3.815C24.803,4.085 24.736,4.32 24.611,4.522C24.487,4.724 24.313,4.88 24.089,4.992C23.866,5.103 23.6,5.158 23.293,5.158Z" style="fill-rule:nonzero;stroke:white;stroke-width:0.07px;"/>
                    </g>
                    <g transform="matrix(0.0442098,0,0,0.0442098,5.1348,0.40285)">
                        <path d="M479.359,32.153L492.699,32.153L492.699,49.503L479.359,49.503L479.359,82.893C479.359,84.358 479.595,85.526 480.068,86.397C480.54,87.268 481.221,87.891 482.111,88.267C483.001,88.643 484.076,88.83 485.335,88.83C486.228,88.83 487.186,88.739 488.208,88.556C489.23,88.373 489.994,88.22 490.502,88.098L494.049,105.101C492.944,105.442 491.373,105.848 489.336,106.32C487.299,106.792 484.86,107.093 482.02,107.221C476.493,107.478 471.766,106.833 467.836,105.284C463.907,103.736 460.906,101.303 458.834,97.987C456.761,94.672 455.751,90.514 455.802,85.515L455.802,49.503L446.008,49.503L446.008,32.153L455.802,32.153L455.802,14.418L479.359,14.418L479.359,32.153Z" style="fill-rule:nonzero;stroke:white;stroke-width:1.5px;"/>
                    </g>
                    <g transform="matrix(1,0,0,1,0.0884197,0)">
                        <path d="M31.894,1.824L30.773,5.097L29.579,5.097L28.458,1.824L29.556,1.824L30.159,4.078L30.193,4.078L30.796,1.824L31.894,1.824Z" style="fill-rule:nonzero;stroke:white;stroke-width:0.07px;"/>
                    </g>
                    <g transform="matrix(0.0442098,0,0,0.0442098,5.17901,0.40285)">
                        <path d="M625.755,74.874L625.755,75.49C625.755,78.51 626.348,81.153 627.534,83.418C628.72,85.683 630.405,87.441 632.59,88.691C634.775,89.941 637.381,90.565 640.407,90.565C642.47,90.565 644.354,90.275 646.06,89.693C647.766,89.111 649.233,88.257 650.46,87.129C651.688,86.001 652.604,84.628 653.207,83.009L674.837,83.625C673.937,88.484 671.968,92.704 668.928,96.286C665.889,99.869 661.918,102.645 657.015,104.614C652.112,106.584 646.422,107.568 639.944,107.568C632.194,107.568 625.523,106.037 619.929,102.976C614.335,99.914 610.033,95.531 607.023,89.828C604.012,84.125 602.507,77.328 602.507,69.437C602.507,61.803 604.018,55.118 607.042,49.383C610.065,43.648 614.326,39.182 619.823,35.985C625.321,32.788 631.796,31.189 639.251,31.189C644.494,31.189 649.303,32.012 653.68,33.657C658.056,35.302 661.837,37.73 665.025,40.94C668.212,44.149 670.682,48.103 672.437,52.8C674.191,57.497 675.068,62.889 675.068,68.974L675.068,74.874L625.755,74.874ZM625.766,61.186L653.169,61.186C653.143,58.654 652.547,56.411 651.381,54.458C650.215,52.504 648.627,50.972 646.619,49.86C644.611,48.748 642.309,48.192 639.713,48.192C637.085,48.192 634.722,48.782 632.623,49.961C630.525,51.141 628.869,52.729 627.654,54.728C626.496,56.635 625.866,58.788 625.766,61.186Z" style="fill-rule:nonzero;stroke:white;stroke-width:1.5px;"/>
                    </g>
                    <path d="M27.297,5.097L27.297,1.824L28.338,1.824L28.338,5.097L27.297,5.097ZM27.819,1.443C27.672,1.443 27.546,1.394 27.441,1.296C27.336,1.199 27.283,1.082 27.283,0.945C27.283,0.808 27.336,0.691 27.441,0.593C27.546,0.496 27.672,0.447 27.819,0.447C27.967,0.447 28.093,0.496 28.197,0.593C28.302,0.691 28.354,0.808 28.354,0.945C28.354,1.082 28.302,1.199 28.197,1.296C28.093,1.394 27.967,1.443 27.819,1.443Z" style="fill-rule:nonzero;stroke:white;stroke-width:0.07px;"/>
                </g>
            </g>
        </g>
    </g>
</svg>
