<svg width="554" height="136" viewBox="0 0 554 136" fill="none" xmlns="http://www.w3.org/2000/svg">
<circle cx="60.7333" cy="71.6962" r="57.6386" stroke="white" stroke-width="6.18938"/>
<path d="M419.812 130.241C418.603 131.45 418.603 133.409 419.812 134.618C421.02 135.827 422.98 135.827 424.188 134.618L419.812 130.241ZM553.524 4.00012C553.524 2.29098 552.139 0.905442 550.43 0.905435L522.577 0.905435C520.868 0.905439 519.483 2.29097 519.483 4.00013C519.483 5.70927 520.868 7.09481 522.577 7.09481L547.335 7.09482L547.335 31.8523C547.335 33.5615 548.72 34.947 550.43 34.947C552.139 34.947 553.524 33.5615 553.524 31.8523L553.524 4.00012ZM424.188 134.618L552.618 6.1884L548.241 1.81185L419.812 130.241L424.188 134.618Z" fill="white"/>
<rect x="28.4815" y="37.4815" width="488.037" height="68.0369" rx="34.0185" fill="#111111" stroke="url(#paint0_linear_516_2)" stroke-width="6.96305"/>
<path d="M80.5267 84V62.3372H84.7664L92.6579 75.1801L89.8727 75.1492L97.8569 62.3372H101.911V84H97.3618V76.5727C97.3618 74.7159 97.4031 73.0448 97.4856 71.5594C97.5887 70.0739 97.7538 68.5988 97.9807 67.1339L98.5378 68.5885L92.1937 78.4296H90.1512L83.9308 68.6503L84.4569 67.1339C84.6839 68.5162 84.8386 69.9398 84.9211 71.4046C85.0243 72.8488 85.0759 74.5715 85.0759 76.5727V84H80.5267ZM116.241 84.3095C114.57 84.3095 113.074 83.9484 111.754 83.2263C110.454 82.4836 109.422 81.4727 108.659 80.1935C107.916 78.9144 107.545 77.4496 107.545 75.7991C107.545 74.1486 107.916 72.6941 108.659 71.4356C109.422 70.1564 110.454 69.1455 111.754 68.4028C113.074 67.66 114.57 67.2887 116.241 67.2887C117.891 67.2887 119.366 67.66 120.666 68.4028C121.987 69.1455 123.018 70.1564 123.761 71.4356C124.504 72.6941 124.875 74.1486 124.875 75.7991C124.875 77.4496 124.504 78.9144 123.761 80.1935C123.018 81.4727 121.987 82.4836 120.666 83.2263C119.366 83.9484 117.891 84.3095 116.241 84.3095ZM116.241 80.4721C117.045 80.4721 117.768 80.2761 118.407 79.8841C119.047 79.4714 119.542 78.9144 119.893 78.2129C120.264 77.4908 120.45 76.6862 120.45 75.7991C120.45 74.8913 120.264 74.0867 119.893 73.3852C119.542 72.6631 119.047 72.1061 118.407 71.7141C117.768 71.3015 117.045 71.0951 116.241 71.0951C115.416 71.0951 114.683 71.3015 114.044 71.7141C113.404 72.1267 112.899 72.6838 112.527 73.3852C112.156 74.0867 111.98 74.8913 112.001 75.7991C111.98 76.6862 112.156 77.4908 112.527 78.2129C112.899 78.9144 113.404 79.4714 114.044 79.8841C114.683 80.2761 115.416 80.4721 116.241 80.4721ZM129.883 84V67.6291H134.123L134.278 72.8901L133.535 71.8069C133.783 70.961 134.185 70.1977 134.742 69.5169C135.299 68.8154 135.949 68.2687 136.692 67.8767C137.455 67.4847 138.249 67.2887 139.075 67.2887C139.425 67.2887 139.766 67.3196 140.096 67.3815C140.426 67.4434 140.704 67.5156 140.931 67.5982L139.755 72.4259C139.508 72.3021 139.209 72.1989 138.858 72.1164C138.507 72.0132 138.146 71.9617 137.775 71.9617C137.28 71.9617 136.815 72.0545 136.382 72.2402C135.97 72.4052 135.609 72.6528 135.299 72.9829C134.99 73.2924 134.742 73.6637 134.556 74.097C134.391 74.5303 134.309 75.0048 134.309 75.5206V84H129.883ZM152.227 84.3095C150.453 84.3095 148.906 83.9484 147.585 83.2263C146.265 82.5042 145.233 81.5139 144.491 80.2554C143.748 78.9969 143.377 77.5527 143.377 75.9229C143.377 74.6644 143.583 73.509 143.996 72.4568C144.408 71.4046 144.986 70.4968 145.729 69.7335C146.471 68.9495 147.348 68.3512 148.359 67.9386C149.391 67.5053 150.505 67.2887 151.701 67.2887C152.815 67.2887 153.847 67.495 154.796 67.9076C155.745 68.2996 156.56 68.867 157.241 69.6097C157.942 70.3318 158.479 71.188 158.85 72.1783C159.221 73.1686 159.387 74.2517 159.345 75.4277L159.314 76.7894H146.162L145.45 74.097H155.694L155.198 74.654V73.9732C155.157 73.4162 154.971 72.9107 154.641 72.4568C154.332 72.0029 153.93 71.6522 153.434 71.4046C152.939 71.157 152.382 71.0333 151.763 71.0333C150.855 71.0333 150.082 71.2086 149.442 71.5594C148.823 71.9101 148.349 72.4259 148.019 73.1067C147.689 73.7875 147.524 74.6128 147.524 75.5824C147.524 76.5727 147.73 77.4289 148.142 78.151C148.576 78.8731 149.174 79.4405 149.937 79.8531C150.721 80.2451 151.639 80.4411 152.692 80.4411C153.414 80.4411 154.074 80.3276 154.672 80.1007C155.271 79.8737 155.91 79.4818 156.591 78.9247L158.695 81.8647C158.097 82.4011 157.437 82.855 156.715 83.2263C155.993 83.5771 155.25 83.8453 154.487 84.0309C153.723 84.2166 152.97 84.3095 152.227 84.3095ZM181.614 84.3095C180.252 84.3095 179.025 83.9381 177.931 83.1954C176.838 82.4527 175.971 81.4417 175.332 80.1626C174.692 78.8834 174.372 77.4186 174.372 75.7681C174.372 74.1176 174.692 72.6631 175.332 71.4046C175.992 70.1255 176.879 69.1249 177.993 68.4028C179.107 67.66 180.376 67.2887 181.8 67.2887C182.604 67.2887 183.337 67.4125 183.997 67.66C184.678 67.887 185.266 68.2068 185.761 68.6194C186.277 69.032 186.71 69.5065 187.061 70.043C187.411 70.5794 187.659 71.157 187.803 71.776L186.875 71.6212V67.6291H191.238V84H186.813V80.0697L187.803 79.9769C187.638 80.5546 187.37 81.1013 186.999 81.6171C186.627 82.1329 186.163 82.5971 185.606 83.0097C185.07 83.4017 184.461 83.7215 183.78 83.9691C183.099 84.196 182.377 84.3095 181.614 84.3095ZM182.821 80.503C183.646 80.503 184.368 80.307 184.987 79.915C185.606 79.523 186.081 78.9763 186.411 78.2748C186.761 77.5527 186.937 76.7172 186.937 75.7681C186.937 74.8397 186.761 74.0248 186.411 73.3233C186.081 72.6219 185.606 72.0751 184.987 71.6831C184.368 71.2705 183.646 71.0642 182.821 71.0642C182.016 71.0642 181.304 71.2705 180.686 71.6831C180.087 72.0751 179.613 72.6219 179.262 73.3233C178.911 74.0248 178.736 74.8397 178.736 75.7681C178.736 76.7172 178.911 77.5527 179.262 78.2748C179.613 78.9763 180.087 79.523 180.686 79.915C181.304 80.307 182.016 80.503 182.821 80.503ZM206.785 84.3095C206.063 84.3095 205.362 84.2063 204.681 84C204 83.7937 203.381 83.5152 202.824 83.1644C202.267 82.7931 201.803 82.3804 201.431 81.9266C201.06 81.452 200.823 80.9672 200.72 80.4721L201.71 80.1007L201.493 83.9381H197.346V61.0993H201.741V71.4665L200.905 71.1261C201.029 70.6309 201.266 70.1564 201.617 69.7025C201.968 69.228 202.411 68.8154 202.948 68.4647C203.484 68.0933 204.072 67.8045 204.712 67.5982C205.351 67.3918 206.011 67.2887 206.692 67.2887C208.116 67.2887 209.385 67.66 210.499 68.4028C211.613 69.1249 212.49 70.1255 213.129 71.4046C213.789 72.6838 214.12 74.1486 214.12 75.7991C214.12 77.4496 213.8 78.9144 213.16 80.1935C212.521 81.4727 211.644 82.4836 210.53 83.2263C209.436 83.9484 208.188 84.3095 206.785 84.3095ZM205.733 80.5649C206.558 80.5649 207.27 80.3689 207.868 79.9769C208.487 79.5643 208.972 79.0072 209.323 78.3058C209.674 77.5837 209.849 76.7481 209.849 75.7991C209.849 74.8707 209.674 74.0454 209.323 73.3233C208.993 72.6012 208.518 72.0442 207.899 71.6522C207.28 71.2602 206.558 71.0642 205.733 71.0642C204.908 71.0642 204.186 71.2602 203.567 71.6522C202.948 72.0442 202.463 72.6012 202.112 73.3233C201.761 74.0454 201.586 74.8707 201.586 75.7991C201.586 76.7481 201.761 77.5837 202.112 78.3058C202.463 79.0072 202.948 79.5643 203.567 79.9769C204.186 80.3689 204.908 80.5649 205.733 80.5649ZM226.759 84.3095C225.088 84.3095 223.592 83.9484 222.271 83.2263C220.972 82.4836 219.94 81.4727 219.177 80.1935C218.434 78.9144 218.063 77.4496 218.063 75.7991C218.063 74.1486 218.434 72.6941 219.177 71.4356C219.94 70.1564 220.972 69.1455 222.271 68.4028C223.592 67.66 225.088 67.2887 226.759 67.2887C228.409 67.2887 229.884 67.66 231.184 68.4028C232.504 69.1455 233.536 70.1564 234.279 71.4356C235.022 72.6941 235.393 74.1486 235.393 75.7991C235.393 77.4496 235.022 78.9144 234.279 80.1935C233.536 81.4727 232.504 82.4836 231.184 83.2263C229.884 83.9484 228.409 84.3095 226.759 84.3095ZM226.759 80.4721C227.563 80.4721 228.285 80.2761 228.925 79.8841C229.565 79.4714 230.06 78.9144 230.41 78.2129C230.782 77.4908 230.967 76.6862 230.967 75.7991C230.967 74.8913 230.782 74.0867 230.41 73.3852C230.06 72.6631 229.565 72.1061 228.925 71.7141C228.285 71.3015 227.563 71.0951 226.759 71.0951C225.933 71.0951 225.201 71.3015 224.561 71.7141C223.922 72.1267 223.416 72.6838 223.045 73.3852C222.674 74.0867 222.498 74.8913 222.519 75.7991C222.498 76.6862 222.674 77.4908 223.045 78.2129C223.416 78.9144 223.922 79.4714 224.561 79.8841C225.201 80.2761 225.933 80.4721 226.759 80.4721ZM246.034 84.3095C244.837 84.3095 243.805 84.0516 242.939 83.5358C242.093 82.9994 241.433 82.2463 240.958 81.2767C240.504 80.2864 240.277 79.1001 240.277 77.7178V67.6291H244.672V77.006C244.672 77.7487 244.796 78.3986 245.043 78.9557C245.291 79.4921 245.642 79.9047 246.095 80.1935C246.549 80.4824 247.106 80.6268 247.767 80.6268C248.241 80.6268 248.685 80.5546 249.097 80.4102C249.51 80.2451 249.861 80.0182 250.149 79.7293C250.438 79.4405 250.665 79.1001 250.83 78.7081C250.995 78.3161 251.078 77.8931 251.078 77.4393V67.6291H255.472V84H251.294L251.14 80.6268L251.944 80.2554C251.697 81.0188 251.284 81.7099 250.707 82.3289C250.129 82.9478 249.438 83.4326 248.633 83.7834C247.828 84.1341 246.962 84.3095 246.034 84.3095ZM263.174 84V63.4822H267.569V84H263.174ZM260.111 71.5594V67.6291H270.911V71.5594H260.111ZM294.313 84.3095C292.972 84.3095 291.744 84.1444 290.63 83.8143C289.537 83.4842 288.557 82.9994 287.69 82.3598C286.845 81.7202 286.081 80.9466 285.4 80.0388L288.309 76.7275C289.32 78.1304 290.321 79.0898 291.311 79.6055C292.322 80.1007 293.416 80.3483 294.592 80.3483C295.231 80.3483 295.799 80.2657 296.294 80.1007C296.809 79.915 297.212 79.6571 297.501 79.327C297.789 78.9969 297.934 78.6049 297.934 78.151C297.934 77.8209 297.862 77.5218 297.717 77.2536C297.573 76.9647 297.367 76.7172 297.098 76.5109C296.83 76.2839 296.51 76.0879 296.139 75.9229C295.768 75.7372 295.355 75.5824 294.901 75.4587C294.447 75.3142 293.952 75.2008 293.416 75.1182C292.26 74.85 291.249 74.5303 290.383 74.1589C289.516 73.7669 288.794 73.2924 288.217 72.7353C287.639 72.1577 287.206 71.5078 286.917 70.7857C286.649 70.0636 286.514 69.2487 286.514 68.3409C286.514 67.4125 286.721 66.5563 287.133 65.7723C287.546 64.9677 288.113 64.2765 288.835 63.6988C289.578 63.1212 290.424 62.6776 291.373 62.3681C292.343 62.0587 293.364 61.9039 294.437 61.9039C295.757 61.9039 296.913 62.0587 297.903 62.3681C298.893 62.657 299.749 63.0799 300.472 63.6369C301.214 64.194 301.833 64.8748 302.328 65.6794L299.388 68.5266C298.955 67.9489 298.481 67.464 297.965 67.0721C297.47 66.6801 296.923 66.3912 296.325 66.2055C295.747 65.9992 295.149 65.8961 294.53 65.8961C293.849 65.8961 293.261 65.9889 292.766 66.1746C292.271 66.3396 291.879 66.5872 291.59 66.9173C291.322 67.2474 291.187 67.6497 291.187 68.1242C291.187 68.4956 291.28 68.8257 291.466 69.1145C291.652 69.4034 291.92 69.6613 292.271 69.8882C292.621 70.0945 293.044 70.2802 293.539 70.4453C294.035 70.6103 294.581 70.7547 295.18 70.8785C296.314 71.1055 297.336 71.4046 298.243 71.776C299.151 72.1473 299.925 72.6012 300.564 73.1376C301.225 73.6534 301.73 74.2724 302.081 74.9945C302.431 75.6959 302.607 76.4902 302.607 77.3774C302.607 78.8422 302.256 80.0904 301.555 81.1219C300.853 82.1535 299.884 82.9478 298.646 83.5048C297.408 84.0413 295.964 84.3095 294.313 84.3095ZM307.956 84V80.0079H311.577V66.3293H307.956V62.3372H319.84V66.3293H316.219V80.0079H319.84V84H307.956ZM336.106 84.3095C334.435 84.3095 332.898 84.0309 331.495 83.4739C330.113 82.8962 328.916 82.1019 327.905 81.091C326.894 80.0801 326.111 78.8938 325.553 77.5321C325.017 76.1704 324.749 74.6953 324.749 73.1067C324.749 71.5181 325.027 70.0533 325.584 68.7122C326.162 67.3506 326.967 66.1746 327.998 65.1843C329.05 64.1734 330.278 63.3894 331.681 62.8323C333.084 62.2753 334.621 61.9968 336.292 61.9968C337.447 61.9968 338.551 62.1515 339.603 62.461C340.656 62.7704 341.615 63.1934 342.481 63.7298C343.348 64.2662 344.07 64.8851 344.648 65.5866L341.77 68.6194C341.233 68.1036 340.666 67.6704 340.068 67.3196C339.49 66.9483 338.881 66.6697 338.242 66.4841C337.602 66.2778 336.942 66.1746 336.261 66.1746C335.291 66.1746 334.394 66.35 333.569 66.7007C332.764 67.0514 332.052 67.5363 331.433 68.1552C330.814 68.7741 330.33 69.5065 329.979 70.3524C329.649 71.1983 329.484 72.1164 329.484 73.1067C329.484 74.0764 329.659 74.9945 330.01 75.861C330.381 76.7069 330.876 77.4496 331.495 78.0891C332.135 78.7081 332.878 79.2032 333.723 79.5746C334.569 79.9253 335.477 80.1007 336.447 80.1007C337.128 80.1007 337.777 79.9975 338.396 79.7912C339.015 79.5849 339.552 79.2961 340.006 78.9247C340.48 78.5327 340.841 78.0788 341.089 77.563C341.357 77.0473 341.491 76.5005 341.491 75.9229V75.1801L342.11 76.0467H335.921V72.1783H345.947C345.968 72.4052 345.989 72.6838 346.009 73.0139C346.051 73.344 346.071 73.6741 346.071 74.0042C346.092 74.3136 346.102 74.5612 346.102 74.7469C346.102 76.1498 345.844 77.4393 345.329 78.6152C344.833 79.7912 344.132 80.8022 343.224 81.648C342.337 82.4939 341.285 83.1541 340.068 83.6286C338.85 84.0825 337.53 84.3095 336.106 84.3095ZM361.835 84.3095C360.163 84.3095 358.626 84.0309 357.224 83.4739C355.841 82.8962 354.645 82.1019 353.634 81.091C352.623 80.0801 351.839 78.8938 351.282 77.5321C350.745 76.1704 350.477 74.6953 350.477 73.1067C350.477 71.5181 350.756 70.0533 351.313 68.7122C351.89 67.3506 352.695 66.1746 353.727 65.1843C354.779 64.1734 356.006 63.3894 357.409 62.8323C358.812 62.2753 360.349 61.9968 362.02 61.9968C363.176 61.9968 364.279 62.1515 365.332 62.461C366.384 62.7704 367.343 63.1934 368.21 63.7298C369.076 64.2662 369.798 64.8851 370.376 65.5866L367.498 68.6194C366.961 68.1036 366.394 67.6704 365.796 67.3196C365.218 66.9483 364.609 66.6697 363.97 66.4841C363.33 66.2778 362.67 66.1746 361.989 66.1746C361.02 66.1746 360.122 66.35 359.297 66.7007C358.492 67.0514 357.781 67.5363 357.162 68.1552C356.543 68.7741 356.058 69.5065 355.707 70.3524C355.377 71.1983 355.212 72.1164 355.212 73.1067C355.212 74.0764 355.387 74.9945 355.738 75.861C356.109 76.7069 356.605 77.4496 357.224 78.0891C357.863 78.7081 358.606 79.2032 359.452 79.5746C360.298 79.9253 361.205 80.1007 362.175 80.1007C362.856 80.1007 363.506 79.9975 364.125 79.7912C364.744 79.5849 365.28 79.2961 365.734 78.9247C366.208 78.5327 366.569 78.0788 366.817 77.563C367.085 77.0473 367.219 76.5005 367.219 75.9229V75.1801L367.838 76.0467H361.649V72.1783H371.676C371.696 72.4052 371.717 72.6838 371.738 73.0139C371.779 73.344 371.799 73.6741 371.799 74.0042C371.82 74.3136 371.83 74.5612 371.83 74.7469C371.83 76.1498 371.573 77.4393 371.057 78.6152C370.562 79.7912 369.86 80.8022 368.952 81.648C368.065 82.4939 367.013 83.1541 365.796 83.6286C364.579 84.0825 363.258 84.3095 361.835 84.3095ZM377.629 84V62.3372H387.222C388.563 62.3372 389.781 62.6467 390.874 63.2656C391.968 63.8639 392.824 64.6788 393.443 65.7104C394.082 66.742 394.402 67.9179 394.402 69.2383C394.402 70.5381 394.082 71.7244 393.443 72.7972C392.824 73.8494 391.968 74.685 390.874 75.3039C389.781 75.9229 388.563 76.2323 387.222 76.2323H382.116V84H377.629ZM389.915 84L384.406 74.2208L389.172 73.4471L395.3 84.0309L389.915 84ZM382.116 72.4568H387.006C387.563 72.4568 388.048 72.333 388.46 72.0854C388.894 71.8172 389.224 71.4562 389.451 71.0023C389.678 70.5278 389.791 70.0017 389.791 69.424C389.791 68.8051 389.657 68.2687 389.389 67.8148C389.12 67.3609 388.728 67.0102 388.213 66.7626C387.697 66.4944 387.099 66.3603 386.418 66.3603H382.116V72.4568ZM398.431 84L406.911 62.3372H411.057L419.506 84H414.74L410.377 72.333C410.253 72.0029 410.098 71.58 409.912 71.0642C409.747 70.5484 409.572 70.0017 409.386 69.424C409.201 68.8463 409.025 68.2996 408.86 67.7838C408.695 67.2474 408.571 66.8038 408.489 66.4531L409.324 66.4222C409.201 66.8967 409.056 67.3918 408.891 67.9076C408.747 68.4028 408.592 68.9186 408.427 69.455C408.262 69.9707 408.087 70.4762 407.901 70.9714C407.715 71.4665 407.54 71.9513 407.375 72.4259L403.011 84H398.431ZM402.361 79.4508L403.878 75.7062H413.812L415.359 79.4508H402.361ZM424.25 84V62.3372H433.441C434.72 62.3372 435.876 62.6467 436.907 63.2656C437.959 63.8639 438.785 64.6891 439.383 65.7413C440.002 66.7935 440.311 67.9798 440.311 69.3002C440.311 70.6413 440.002 71.8482 439.383 72.921C438.785 73.9938 437.959 74.85 436.907 75.4896C435.876 76.1085 434.72 76.418 433.441 76.418H428.892V84H424.25ZM428.83 72.2402H432.915C433.41 72.2402 433.854 72.1164 434.246 71.8688C434.638 71.6006 434.947 71.2499 435.174 70.8166C435.422 70.3834 435.545 69.8882 435.545 69.3312C435.545 68.7741 435.422 68.2893 435.174 67.8767C434.947 67.4434 434.638 67.1133 434.246 66.8864C433.854 66.6388 433.41 66.515 432.915 66.515H428.83V72.2402ZM459.818 84V62.3372H464.46V84H459.818ZM446.17 84V62.3372H450.812V84H446.17ZM448.027 75.3039L448.058 71.0951H462.201V75.3039H448.027Z" fill="white"/>
<defs>
<linearGradient id="paint0_linear_516_2" x1="520" y1="71.8866" x2="25" y2="71.8866" gradientUnits="userSpaceOnUse">
<stop stop-color="#FF5195"/>
<stop offset="0.510417" stop-color="#FBBD4A"/>
<stop offset="1" stop-color="#FE7D67"/>
</linearGradient>
</defs>
</svg>
