<svg width="606" height="101" viewBox="0 0 606 101" fill="none" xmlns="http://www.w3.org/2000/svg">
<path d="M68.4485 61.7493L67.5688 61.2738L67.5672 61.2768L68.4485 61.7493ZM55.3775 75.3903L55.8706 76.2602L55.8719 76.2595L55.3775 75.3903ZM18.2163 75.3523L18.7124 74.484L18.2163 75.3523ZM5.18324 61.7113L4.30193 62.1838L5.18324 61.7113ZM5.18324 18.4325L6.06455 18.9051L5.18324 18.4325ZM18.2163 4.82955L18.7094 5.69952L18.7124 5.69779L18.2163 4.82955ZM55.3775 4.82955L54.8813 5.6978L54.8861 5.70048L55.3775 4.82955ZM68.4485 18.4325L67.5672 18.9051L67.5688 18.908L68.4485 18.4325ZM54.1236 26.1839L53.2047 26.5786L53.207 26.5838L54.1236 26.1839ZM47.2461 17.5966L46.6963 18.4319L47.2461 17.5966ZM26.4237 17.5966L26.9734 18.4319L26.4237 17.5966ZM19.5082 26.1839L18.5916 25.7841L18.5893 25.7893L19.5082 26.1839ZM19.5082 53.9979L18.5893 54.3925L18.5916 54.3977L19.5082 53.9979ZM26.4237 62.5852L26.9734 61.7499L26.4237 62.5852ZM47.2461 62.5852L46.6963 61.7499L47.2461 62.5852ZM54.1236 53.9979L53.207 53.598L53.2048 53.6032L54.1236 53.9979ZM72.2742 40.0909C72.2742 48.4523 70.6893 55.4995 67.5688 61.2738L69.3283 62.2247C72.6419 56.0933 74.2742 48.7015 74.2742 40.0909H72.2742ZM67.5672 61.2768C64.4586 67.0746 60.2311 71.4791 54.8831 74.521L55.8719 76.2595C61.5684 73.0193 66.0549 68.3298 69.3298 62.2218L67.5672 61.2768ZM54.8844 74.5203C49.5507 77.5436 43.5422 79.0639 36.8349 79.0639V81.0639C43.8572 81.0639 50.2105 79.4685 55.8706 76.2602L54.8844 74.5203ZM36.8349 79.0639C30.0769 79.0639 24.0445 77.5309 18.7124 74.484L17.7201 76.2205C23.3819 79.4558 29.7619 81.0639 36.8349 81.0639V79.0639ZM18.7124 74.484C13.3895 71.4424 9.1738 67.0378 6.06455 61.2388L4.30193 62.1838C7.5762 68.2906 12.0492 72.98 17.7201 76.2205L18.7124 74.484ZM6.06455 61.2388C2.96797 55.4634 1.3956 48.4276 1.3956 40.0909H-0.604403C-0.604403 48.6756 1.01499 56.0534 4.30193 62.1838L6.06455 61.2388ZM1.3956 40.0909C1.3956 31.7283 2.96818 24.68 6.06455 18.9051L4.30193 17.96C1.01477 24.0908 -0.604403 31.4814 -0.604403 40.0909H1.3956ZM6.06455 18.9051C9.17348 13.1067 13.3882 8.71563 18.7094 5.69951L17.7232 3.95958C12.0504 7.17499 7.57652 11.8526 4.30193 17.96L6.06455 18.9051ZM18.7124 5.69779C24.0445 2.65087 30.0769 1.1179 36.8349 1.1179V-0.882105C29.7619 -0.882105 23.3819 0.726019 17.7201 3.9613L18.7124 5.69779ZM36.8349 1.1179C43.5408 1.1179 49.5481 2.65023 54.8813 5.69779L55.8736 3.9613C50.213 0.726658 43.8586 -0.882105 36.8349 -0.882105V1.1179ZM54.8861 5.70048C60.2323 8.71693 64.4589 13.1078 67.5672 18.9051L69.3298 17.96C66.0546 11.8514 61.5672 7.17369 55.8689 3.95861L54.8861 5.70048ZM67.5688 18.908C70.6893 24.6823 72.2742 31.7295 72.2742 40.0909H74.2742C74.2742 31.4803 72.6419 24.0886 69.3283 17.9571L67.5688 18.908ZM57.5934 40.0909C57.5934 34.5 56.7568 29.7193 55.0402 25.7841L53.207 26.5838C54.7834 30.1974 55.5934 34.6879 55.5934 40.0909H57.5934ZM55.0424 25.7893C53.3564 21.8641 50.9477 18.8356 47.7958 16.7613L46.6963 18.4319C49.472 20.2587 51.6483 22.955 53.2048 26.5786L55.0424 25.7893ZM47.7958 16.7613C44.6496 14.6906 40.9829 13.6708 36.8349 13.6708V15.6708C40.6409 15.6708 43.9151 16.6015 46.6963 18.4319L47.7958 16.7613ZM36.8349 13.6708C32.6869 13.6708 29.0202 14.6906 25.8739 16.7613L26.9734 18.4319C29.7547 16.6015 33.0288 15.6708 36.8349 15.6708V13.6708ZM25.8739 16.7613C22.7235 18.8346 20.3029 21.8613 18.5916 25.7841L20.4247 26.5838C22.0065 22.9579 24.1962 20.2596 26.9734 18.4319L25.8739 16.7613ZM18.5893 25.7893C16.8998 29.7229 16.0764 34.5017 16.0764 40.0909H18.0764C18.0764 34.6863 18.8742 30.1938 20.427 26.5786L18.5893 25.7893ZM16.0764 40.0909C16.0764 45.6801 16.8998 50.459 18.5893 54.3925L20.427 53.6032C18.8742 49.988 18.0764 45.4955 18.0764 40.0909H16.0764ZM18.5916 54.3977C20.3029 58.3206 22.7235 61.3472 25.8739 63.4206L26.9734 61.7499C24.1962 59.9222 22.0065 57.2239 20.4247 53.598L18.5916 54.3977ZM25.8739 63.4206C29.0202 65.4912 32.6869 66.511 36.8349 66.511V64.511C33.0288 64.511 29.7547 63.5803 26.9734 61.7499L25.8739 63.4206ZM36.8349 66.511C40.9829 66.511 44.6496 65.4912 47.7958 63.4206L46.6963 61.7499C43.9151 63.5803 40.6409 64.511 36.8349 64.511V66.511ZM47.7958 63.4206C50.9477 61.3463 53.3564 58.3177 55.0424 54.3925L53.2048 53.6032C51.6483 57.2268 49.472 59.9231 46.6963 61.7499L47.7958 63.4206ZM55.0402 54.3977C56.7568 50.4625 57.5934 45.6818 57.5934 40.0909H55.5934C55.5934 45.4939 54.7834 49.9844 53.207 53.598L55.0402 54.3977ZM119.375 54.1499H118.375L118.375 54.1596L119.375 54.1499ZM119.375 20.6364V19.6364H118.375V20.6364H119.375ZM135.562 20.6364H136.562V19.6364H135.562V20.6364ZM135.562 79V80H136.562V79H135.562ZM120.021 79H119.021V80H120.021V79ZM120.021 68.3988H121.021V67.3988H120.021V68.3988ZM119.413 68.3988V67.3988H118.727L118.48 68.0394L119.413 68.3988ZM112.839 76.6442L112.278 75.8164L112.275 75.8185L112.839 76.6442ZM91.4091 77.1001L91.9225 76.242L91.4091 77.1001ZM84.4556 69.5387L83.5625 69.9887L83.5653 69.9942L84.4556 69.5387ZM81.9478 57.7976H80.9477L80.9478 57.8031L81.9478 57.7976ZM81.9478 20.6364V19.6364H80.9478V20.6364H81.9478ZM98.1346 20.6364H99.1346V19.6364H98.1346V20.6364ZM98.1346 54.9098H97.1345L97.1346 54.9172L98.1346 54.9098ZM100.908 63.0792L101.647 62.4056L100.908 63.0792ZM113.713 64.7511L114.176 65.6375L114.187 65.632L113.713 64.7511ZM117.817 60.7234L116.96 60.2088L116.954 60.218L117.817 60.7234ZM120.375 54.1499V20.6364H118.375V54.1499H120.375ZM119.375 21.6364H135.562V19.6364H119.375V21.6364ZM134.562 20.6364V79H136.562V20.6364H134.562ZM135.562 78H120.021V80H135.562V78ZM121.021 79V68.3988H119.021V79H121.021ZM120.021 67.3988H119.413V69.3988H120.021V67.3988ZM118.48 68.0394C117.237 71.2665 115.176 73.8524 112.278 75.8164L113.4 77.472C116.633 75.2816 118.955 72.3705 120.346 68.7582L118.48 68.0394ZM112.275 75.8185C109.431 77.7619 105.926 78.7599 101.706 78.7599V80.7599C106.251 80.7599 110.168 79.6808 113.404 77.4698L112.275 75.8185ZM101.706 78.7599C97.9621 78.7599 94.7117 77.9108 91.9225 76.242L90.8956 77.9583C94.0339 79.8359 97.6484 80.7599 101.706 80.7599V78.7599ZM91.9225 76.242C89.1298 74.5712 86.9379 72.195 85.3458 69.0832L83.5653 69.9942C85.317 73.4179 87.7607 76.0827 90.8956 77.9583L91.9225 76.242ZM85.3486 69.0887C83.7865 65.9886 82.9724 62.2344 82.9477 57.792L80.9478 57.8031C80.9738 62.4801 81.8315 66.5533 83.5625 69.9887L85.3486 69.0887ZM82.9478 57.7976V20.6364H80.9478V57.7976H82.9478ZM81.9478 21.6364H98.1346V19.6364H81.9478V21.6364ZM97.1346 20.6364V54.9098H99.1346V20.6364H97.1346ZM97.1346 54.9172C97.1612 58.5395 98.1378 61.5238 100.169 63.7528L101.647 62.4056C100.031 60.6322 99.1586 58.1703 99.1345 54.9025L97.1346 54.9172ZM100.169 63.7528C102.209 65.9904 104.936 67.081 108.242 67.081V65.081C105.417 65.081 103.256 64.1703 101.647 62.4056L100.169 63.7528ZM108.242 67.081C110.35 67.081 112.334 66.6001 114.176 65.6374L113.25 63.8647C111.699 64.6752 110.034 65.081 108.242 65.081V67.081ZM114.187 65.632C116.057 64.6272 117.555 63.1496 118.68 61.2288L116.954 60.218C116.002 61.8436 114.765 63.0511 113.24 63.8702L114.187 65.632ZM118.675 61.2379C119.855 59.2699 120.402 56.886 120.375 54.1402L118.375 54.1596C118.399 56.632 117.907 58.6305 116.96 60.2089L118.675 61.2379ZM145.299 79H144.299V80H145.299V79ZM145.299 20.6364V19.6364H144.299V20.6364H145.299ZM160.992 20.6364H161.992V19.6364H160.992V20.6364ZM160.992 30.8196H159.992V31.8196H160.992V30.8196ZM161.6 30.8196V31.8196H162.349L162.56 31.1014L161.6 30.8196ZM166.958 22.6122L167.551 23.4171L167.556 23.4132L166.958 22.6122ZM178.243 19.9524L178.35 18.9582H178.35L178.243 19.9524ZM180.713 20.3704H181.713V19.5896L180.955 19.4002L180.713 20.3704ZM180.713 34.7333L180.425 35.6911L181.713 36.0773V34.7333H180.713ZM167.49 35.4173L167.97 36.2942L167.974 36.292L167.49 35.4173ZM163.082 39.6729L162.223 39.1602L162.218 39.1691L163.082 39.6729ZM161.486 79V80H162.486V79H161.486ZM146.299 79V20.6364H144.299V79H146.299ZM145.299 21.6364H160.992V19.6364H145.299V21.6364ZM159.992 20.6364V30.8196H161.992V20.6364H159.992ZM160.992 31.8196H161.6V29.8196H160.992V31.8196ZM162.56 31.1014C163.575 27.6431 165.254 25.111 167.551 23.4171L166.364 21.8074C163.646 23.8119 161.753 26.7513 160.641 30.5378L162.56 31.1014ZM167.556 23.4132C169.883 21.6738 172.559 20.8004 175.621 20.8004V18.8004C172.148 18.8004 169.048 19.8016 166.359 21.8112L167.556 23.4132ZM175.621 20.8004C176.391 20.8004 177.228 20.8485 178.135 20.9466L178.35 18.9582C177.383 18.8536 176.473 18.8004 175.621 18.8004V20.8004ZM178.135 20.9466C179.039 21.0444 179.816 21.1769 180.47 21.3405L180.955 19.4002C180.191 19.2092 179.321 19.0631 178.35 18.9582L178.135 20.9466ZM179.713 20.3704V34.7333H181.713V20.3704H179.713ZM181 33.7755C180.166 33.5252 179.054 33.3141 177.69 33.134L177.428 35.1167C178.749 35.2912 179.74 35.4855 180.425 35.6911L181 33.7755ZM177.69 33.134C176.313 32.9521 175.04 32.8594 173.873 32.8594V34.8594C174.936 34.8594 176.12 34.944 177.428 35.1167L177.69 33.134ZM173.873 32.8594C171.342 32.8594 169.044 33.4129 167.005 34.5425L167.974 36.292C169.685 35.3444 171.642 34.8594 173.873 34.8594V32.8594ZM167.009 34.5403C165.002 35.6398 163.403 37.1846 162.223 39.1602L163.94 40.1857C164.939 38.5135 166.278 37.2212 167.97 36.2942L167.009 34.5403ZM162.218 39.1691C161.054 41.1646 160.486 43.4453 160.486 45.9805H162.486C162.486 43.7533 162.982 41.829 163.946 40.1768L162.218 39.1691ZM160.486 45.9805V79H162.486V45.9805H160.486ZM161.486 78H145.299V80H161.486V78ZM276.391 28.4258V29.4258H277.516L277.384 28.3086L276.391 28.4258ZM259.748 28.4258L258.758 28.5656L258.88 29.4258H259.748V28.4258ZM257.886 22.6882L257.011 23.1716L257.014 23.1772L257.886 22.6882ZM254.277 18.3565L253.647 19.1335V19.1335L254.277 18.3565ZM249.185 15.6207L248.869 16.5694L248.873 16.5707L249.185 15.6207ZM232.466 17.6726L233.018 18.5068L233.023 18.5035L232.466 17.6726ZM225.513 26.3359L226.429 26.7358L226.43 26.7335L225.513 26.3359ZM225.513 54.0739L224.596 54.4737L224.598 54.4789L225.513 54.0739ZM232.504 62.6232L231.963 63.4639L232.504 62.6232ZM248.995 64.6371L248.702 63.681L248.698 63.6821L248.995 64.6371ZM254.049 62.0913L254.653 62.888L254.662 62.8813L254.049 62.0913ZM257.696 57.9496L256.842 57.4292L256.837 57.439L257.696 57.9496ZM259.748 52.402L259.753 51.402L258.915 51.3982L258.765 52.222L259.748 52.402ZM276.391 52.478L277.384 52.5977L277.518 51.4831L276.396 51.478L276.391 52.478ZM273.161 62.8132L272.274 62.3525L272.272 62.3551L273.161 62.8132ZM266.284 71.6665L266.954 72.4089L266.954 72.4085L266.284 71.6665ZM256.025 77.8221L256.378 78.7574L256.382 78.7562L256.025 77.8221ZM223.993 75.3523L223.493 76.2185L223.495 76.2195L223.993 75.3523ZM211.074 61.7113L210.189 62.178L210.191 62.1809L211.074 61.7113ZM211.15 18.4325L212.031 18.9051L211.15 18.4325ZM224.145 4.82955L224.64 5.69854L224.643 5.6968L224.145 4.82955ZM255.151 2.01775L254.838 2.96768L254.84 2.96828L255.151 2.01775ZM265.448 7.56534L264.817 8.34106L264.821 8.34427L265.448 7.56534ZM272.743 16.4187L271.862 16.8913L271.865 16.8962L272.743 16.4187ZM276.391 27.4258H259.748V29.4258H276.391V27.4258ZM260.738 28.286C260.419 26.0265 259.764 23.9927 258.759 22.1992L257.014 23.1772C257.883 24.7275 258.469 26.5187 258.758 28.5656L260.738 28.286ZM258.762 22.2048C257.764 20.3977 256.478 18.8533 254.906 17.5796L253.647 19.1335C255.014 20.2409 256.134 21.5843 257.011 23.1716L258.762 22.2048ZM254.906 17.5796C253.336 16.3073 251.53 15.3393 249.498 14.6708L248.873 16.5707C250.691 17.1687 252.279 18.0247 253.647 19.1335L254.906 17.5796ZM249.501 14.6721C247.489 14.0012 245.316 13.6708 242.992 13.6708V15.6708C245.125 15.6708 247.082 15.9737 248.869 16.5694L249.501 14.6721ZM242.992 13.6708C238.79 13.6708 235.083 14.7173 231.91 16.8416L233.023 18.5035C235.828 16.6255 239.137 15.6708 242.992 15.6708V13.6708ZM231.915 16.8384C228.74 18.937 226.307 21.989 224.595 25.9383L226.43 26.7335C228.012 23.0834 230.214 20.3598 233.018 18.5068L231.915 16.8384ZM224.596 25.9361C222.88 29.8692 222.043 34.5984 222.043 40.0909H224.043C224.043 34.7922 224.852 30.3514 226.429 26.7358L224.596 25.9361ZM222.043 40.0909C222.043 45.731 222.879 50.5375 224.596 54.4737L226.429 53.674C224.853 50.0614 224.043 45.546 224.043 40.0909H222.043ZM224.598 54.4789C226.336 58.4023 228.784 61.4168 231.963 63.4639L233.046 61.7825C230.246 59.9792 228.033 57.2942 226.427 53.6689L224.598 54.4789ZM231.963 63.4639C235.13 65.5038 238.78 66.511 242.878 66.511V64.511C239.122 64.511 235.857 63.593 233.046 61.7825L231.963 63.4639ZM242.878 66.511C245.17 66.511 247.31 66.2079 249.292 65.592L248.698 63.6821C246.931 64.2315 244.993 64.511 242.878 64.511V66.511ZM249.288 65.5931C251.292 64.9788 253.083 64.0788 254.653 62.888L253.444 61.2946C252.076 62.3328 250.498 63.1301 248.702 63.681L249.288 65.5931ZM254.662 62.8813C256.231 61.6635 257.531 60.1876 258.556 58.4601L256.837 57.439C255.937 58.9539 254.804 60.2392 253.436 61.3012L254.662 62.8813ZM258.55 58.4699C259.609 56.7331 260.332 54.7661 260.732 52.5819L258.765 52.222C258.404 54.1922 257.76 55.9237 256.842 57.4292L258.55 58.4699ZM259.744 53.402L276.386 53.478L276.396 51.478L259.753 51.402L259.744 53.402ZM275.398 52.3583C274.982 55.8063 273.943 59.1363 272.274 62.3525L274.049 63.2739C275.824 59.8533 276.938 56.2931 277.384 52.5977L275.398 52.3583ZM272.272 62.3551C270.633 65.5358 268.416 68.392 265.613 70.9246L266.954 72.4085C269.927 69.7228 272.295 66.6768 274.05 63.2713L272.272 62.3551ZM265.614 70.9242C262.852 73.4171 259.541 75.4076 255.668 76.888L256.382 78.7562C260.462 77.1968 263.991 75.0836 266.954 72.4089L265.614 70.9242ZM255.671 76.8867C251.851 78.3316 247.502 79.0639 242.612 79.0639V81.0639C247.701 81.0639 252.295 80.3017 256.378 78.7574L255.671 76.8867ZM242.612 79.0639C235.827 79.0639 229.796 77.5306 224.491 74.485L223.495 76.2195C229.133 79.4561 235.514 81.0639 242.612 81.0639V79.0639ZM224.493 74.486C219.221 71.4454 215.042 67.0415 211.957 61.2417L210.191 62.1809C213.439 68.2868 217.873 72.9769 223.493 76.2185L224.493 74.486ZM211.958 61.2446C208.91 55.4679 207.362 48.4299 207.362 40.0909H205.362C205.362 48.6733 206.955 56.0489 210.189 62.178L211.958 61.2446ZM207.362 40.0909C207.362 31.7283 208.935 24.68 212.031 18.9051L210.269 17.96C206.981 24.0908 205.362 31.4814 205.362 40.0909H207.362ZM212.031 18.9051C215.141 13.1055 219.344 8.71433 224.64 5.69853L223.65 3.96056C218.003 7.17629 213.543 11.8538 210.269 17.96L212.031 18.9051ZM224.643 5.6968C229.95 2.64992 235.932 1.1179 242.612 1.1179V-0.882105C235.612 -0.882105 229.283 0.726974 223.647 3.96229L224.643 5.6968ZM242.612 1.1179C247.026 1.1179 251.099 1.73778 254.838 2.96768L255.463 1.06783C251.501 -0.235418 247.215 -0.882105 242.612 -0.882105V1.1179ZM254.84 2.96828C258.606 4.19898 261.928 5.9911 264.817 8.34105L266.079 6.78962C262.989 4.27594 259.447 2.36967 255.461 1.06722L254.84 2.96828ZM264.821 8.34427C267.702 10.6639 270.049 13.5096 271.862 16.8913L273.625 15.9461C271.689 12.3363 269.172 9.27979 266.075 6.7864L264.821 8.34427ZM271.865 16.8962C273.696 20.2655 274.879 24.1426 275.398 28.5429L277.384 28.3086C276.839 23.691 275.59 19.5633 273.622 15.9412L271.865 16.8962ZM300.862 45.2585L299.862 45.2484V45.2585H300.862ZM300.862 79V80H301.862V79H300.862ZM284.675 79H283.675V80H284.675V79ZM284.675 1.18182V0.181816H283.675V1.18182H284.675ZM300.406 1.18182H301.406V0.181816H300.406V1.18182ZM300.406 30.9336H299.406V31.9336H300.406V30.9336ZM301.09 30.9336V31.9336H301.778L302.024 31.2907L301.09 30.9336ZM307.473 22.8402L308.026 23.6734L308.031 23.67L307.473 22.8402ZM329.132 22.5362L328.625 23.3982L328.633 23.4031L329.132 22.5362ZM336.199 30.0977L335.308 30.5504L335.312 30.5586L336.199 30.0977ZM338.707 41.8388L337.707 41.8332V41.8388H338.707ZM338.707 79V80H339.707V79H338.707ZM322.52 79H321.52V80H322.52V79ZM322.52 44.7266L321.52 44.7195V44.7266H322.52ZM319.785 36.3292L319.045 37.0028L319.05 37.0079L319.785 36.3292ZM306.258 34.7333L305.774 33.8579L305.769 33.861L306.258 34.7333ZM302.306 38.837L301.424 38.3651L301.422 38.3697L302.306 38.837ZM299.862 45.2585V79H301.862V45.2585H299.862ZM300.862 78H284.675V80H300.862V78ZM285.675 79V1.18182H283.675V79H285.675ZM284.675 2.18182H300.406V0.181816H284.675V2.18182ZM299.406 1.18182V30.9336H301.406V1.18182H299.406ZM300.406 31.9336H301.09V29.9336H300.406V31.9336ZM302.024 31.2907C303.27 28.0307 305.27 25.5032 308.026 23.6733L306.92 22.007C303.8 24.0782 301.544 26.9464 300.156 30.5765L302.024 31.2907ZM308.031 23.67C310.768 21.8301 314.246 20.8764 318.531 20.8764V18.8764C313.949 18.8764 310.056 19.8985 306.915 22.0103L308.031 23.67ZM318.531 20.8764C322.434 20.8764 325.787 21.7289 328.625 23.3982L329.639 21.6743C326.448 19.7972 322.733 18.8764 318.531 18.8764V20.8764ZM328.633 23.4031C331.495 25.0488 333.719 27.4209 335.308 30.5504L337.091 29.645C335.336 26.1882 332.848 23.5194 329.63 21.6693L328.633 23.4031ZM335.312 30.5586C336.918 33.6519 337.732 37.3978 337.707 41.8332L339.707 41.8443C339.733 37.1604 338.875 33.0789 337.087 29.6367L335.312 30.5586ZM337.707 41.8388V79H339.707V41.8388H337.707ZM338.707 78H322.52V80H338.707V78ZM323.52 79V44.7266H321.52V79H323.52ZM323.52 44.7336C323.547 40.966 322.59 37.8917 320.519 35.6505L319.05 37.0079C320.678 38.7691 321.544 41.293 321.52 44.7195L323.52 44.7336ZM320.524 35.6556C318.47 33.4024 315.618 32.3274 312.109 32.3274V34.3274C315.187 34.3274 317.451 35.2536 319.045 37.0028L320.524 35.6556ZM312.109 32.3274C309.76 32.3274 307.639 32.8283 305.774 33.8579L306.741 35.6087C308.271 34.7638 310.051 34.3274 312.109 34.3274V32.3274ZM305.769 33.861C303.919 34.8977 302.471 36.4097 301.424 38.3651L303.188 39.3089C304.066 37.6672 305.252 36.4435 306.747 35.6056L305.769 33.861ZM301.422 38.3697C300.394 40.3148 299.889 42.6202 299.862 45.2484L301.862 45.2686C301.886 42.8812 302.344 40.9056 303.19 39.3043L301.422 38.3697ZM354.923 78.1641L354.511 79.0753L354.518 79.0782L354.923 78.1641ZM348.008 72.3505L347.168 72.8938L347.174 72.9033L348.008 72.3505ZM347.286 54.5298L346.406 54.0545L347.286 54.5298ZM352.149 49.2102L351.602 48.3734L352.149 49.2102ZM359.141 46.1705L358.89 45.2025L358.887 45.2031L359.141 46.1705ZM367.424 44.7266L367.52 45.722L367.528 45.7211L367.424 44.7266ZM375.632 43.7386L375.776 44.7282L375.788 44.7263L375.632 43.7386ZM380.153 42.2947L379.593 41.4662L380.153 42.2947ZM379.279 33.6694L378.618 34.4196L378.624 34.4251L379.279 33.6694ZM365.942 33.6314L366.535 34.4371L366.542 34.4314L365.942 33.6314ZM362.523 38.419L362.442 39.4158L363.256 39.4819L363.483 38.6971L362.523 38.419ZM347.552 37.2031L346.574 36.9936L346.335 38.1076L347.471 38.1998L347.552 37.2031ZM352.035 28.0078L352.793 28.6611L352.796 28.6574L352.035 28.0078ZM360.661 22.0043L361.029 22.9341L361.032 22.9327L360.661 22.0043ZM382.281 21.0163L382.033 21.985L382.035 21.9855L382.281 21.0163ZM390.223 24.5501L389.653 25.3723L389.658 25.3752L390.223 24.5501ZM395.732 30.7056L394.85 31.1776L394.852 31.1813L395.732 30.7056ZM397.746 79V80H398.746V79H397.746ZM382.395 79H381.395V80H382.395V79ZM382.395 70.9066H383.395V69.9066H382.395V70.9066ZM381.939 70.9066V69.9066H381.329L381.05 70.4495L381.939 70.9066ZM378.177 75.7322L378.834 76.4864L378.841 76.4803L378.177 75.7322ZM372.516 78.962L372.842 79.9074L372.851 79.904L372.516 78.962ZM375.822 67.5249L376.279 68.4143L376.288 68.4092L375.822 67.5249ZM380.115 63.6491L379.273 63.1097L380.115 63.6491ZM381.673 51.946H382.673V50.1033L381.128 51.1076L381.673 51.946ZM379.583 52.858L379.865 53.8173L379.874 53.8147L379.883 53.812L379.583 52.858ZM376.658 53.5799L376.84 54.563L376.851 54.561L376.862 54.5587L376.658 53.5799ZM373.39 54.1499L373.528 55.1403L373.539 55.1387L373.55 55.1369L373.39 54.1499ZM370.426 54.5678L370.285 53.5779L370.281 53.5784L370.426 54.5678ZM365.448 55.8977L365.842 56.8169L365.448 55.8977ZM362.143 58.3675L362.933 58.9802L362.94 58.9706L362.143 58.3675ZM363.359 67.2209L362.769 68.0285L362.776 68.0338L362.783 68.0389L363.359 67.2209ZM364.878 79.1019C361.271 79.1019 358.094 78.4765 355.329 77.2499L354.518 79.0782C357.578 80.4355 361.038 81.1019 364.878 81.1019V79.1019ZM355.335 77.2529C352.586 76.0098 350.43 74.1928 348.841 71.7977L347.174 72.9033C348.98 75.6251 351.434 77.6839 354.511 79.0752L355.335 77.2529ZM348.847 71.8072C347.304 69.4216 346.5 66.4052 346.5 62.6992H344.5C344.5 66.694 345.368 70.1118 347.168 72.8937L348.847 71.8072ZM346.5 62.6992C346.5 59.5753 347.074 57.0262 348.166 55.0051L346.406 54.0545C345.117 56.4411 344.5 59.3383 344.5 62.6992H346.5ZM348.166 55.0051C349.279 52.9443 350.787 51.2966 352.697 50.047L351.602 48.3734C349.408 49.809 347.674 51.7077 346.406 54.0545L348.166 55.0051ZM352.697 50.047C354.65 48.7691 356.879 47.7971 359.394 47.1378L358.887 45.2031C356.184 45.9117 353.753 46.9662 351.602 48.3734L352.697 50.047ZM359.392 47.1384C361.972 46.4685 364.681 45.9959 367.52 45.7219L367.328 43.7312C364.391 44.0146 361.578 44.5045 358.89 45.2025L359.392 47.1384ZM367.528 45.7211C370.929 45.3658 373.68 45.0349 375.776 44.7281L375.487 42.7492C373.429 43.0503 370.708 43.378 367.32 43.732L367.528 45.7211ZM375.788 44.7263C377.906 44.3905 379.591 43.8818 380.713 43.1233L379.593 41.4662C378.841 41.9743 377.511 42.4282 375.475 42.751L375.788 44.7263ZM380.713 43.1233C381.956 42.2837 382.559 41.0183 382.559 39.483H380.559C380.559 40.4301 380.225 41.0392 379.593 41.4662L380.713 43.1233ZM382.559 39.483V39.255H380.559V39.483H382.559ZM382.559 39.255C382.559 36.621 381.716 34.4583 379.934 32.9137L378.624 34.4251C379.882 35.5149 380.559 37.076 380.559 39.255H382.559ZM379.941 32.9192C378.203 31.3881 375.806 30.6935 372.896 30.6935V32.6935C375.507 32.6935 377.366 33.3162 378.618 34.4196L379.941 32.9192ZM372.896 30.6935C369.842 30.6935 367.29 31.3707 365.342 32.8314L366.542 34.4314C368.04 33.3083 370.124 32.6935 372.896 32.6935V30.6935ZM365.35 32.8257C363.463 34.2135 362.185 35.9896 361.562 38.141L363.483 38.6971C363.975 36.9981 364.977 35.5824 366.535 34.437L365.35 32.8257ZM362.604 37.4223L347.633 36.2064L347.471 38.1998L362.442 39.4158L362.604 37.4223ZM348.529 37.4127C349.257 34.0197 350.68 31.1098 352.793 28.661L351.278 27.3546C348.933 30.0734 347.367 33.2938 346.574 36.9936L348.529 37.4127ZM352.796 28.6574C354.908 26.1847 357.643 24.2736 361.029 22.9341L360.293 21.0744C356.636 22.5213 353.621 24.6126 351.275 27.3582L352.796 28.6574ZM361.032 22.9327C364.438 21.5706 368.411 20.8764 372.972 20.8764V18.8764C368.211 18.8764 363.977 19.6008 360.289 21.0758L361.032 22.9327ZM372.972 20.8764C376.135 20.8764 379.155 21.2471 382.033 21.985L382.529 20.0477C379.48 19.2657 376.293 18.8764 372.972 18.8764V20.8764ZM382.035 21.9855C384.92 22.719 387.455 23.8507 389.653 25.3723L390.792 23.7279C388.379 22.0577 385.621 20.8335 382.527 20.0472L382.035 21.9855ZM389.658 25.3752C391.855 26.8798 393.583 28.8101 394.85 31.1776L396.614 30.2336C395.196 27.5855 393.251 25.4121 390.788 23.725L389.658 25.3752ZM394.852 31.1813C396.1 33.4878 396.746 36.293 396.746 39.6349H398.746C398.746 36.0361 398.049 32.8884 396.612 30.2299L394.852 31.1813ZM396.746 39.6349V79H398.746V39.6349H396.746ZM397.746 78H382.395V80H397.746V78ZM383.395 79V70.9066H381.395V79H383.395ZM382.395 69.9066H381.939V71.9066H382.395V69.9066ZM381.05 70.4495C380.17 72.1606 378.994 73.6711 377.514 74.9842L378.841 76.4803C380.502 75.0069 381.833 73.3003 382.829 71.3637L381.05 70.4495ZM377.521 74.9782C376.055 76.2544 374.281 77.2716 372.18 78.02L372.851 79.904C375.159 79.0819 377.158 77.9459 378.834 76.4863L377.521 74.9782ZM372.19 78.0166C370.112 78.7329 367.681 79.1019 364.878 79.1019V81.1019C367.852 81.1019 370.511 80.7109 372.842 79.9074L372.19 78.0166ZM369.514 69.9308C372.029 69.9308 374.292 69.4351 376.279 68.4143L375.365 66.6354C373.703 67.4891 371.762 67.9308 369.514 67.9308V69.9308ZM376.288 68.4092C378.254 67.3719 379.819 65.9656 380.957 64.1886L379.273 63.1097C378.334 64.5751 377.037 65.7526 375.355 66.6405L376.288 68.4092ZM380.957 64.1886C382.106 62.3956 382.673 60.3695 382.673 58.1396H380.673C380.673 60.0133 380.202 61.6602 379.273 63.1097L380.957 64.1886ZM382.673 58.1396V51.946H380.673V58.1396H382.673ZM381.128 51.1076C380.727 51.3684 380.125 51.6396 379.283 51.904L379.883 53.812C380.815 53.519 381.606 53.1822 382.218 52.7845L381.128 51.1076ZM379.301 51.8986C378.471 52.1429 377.522 52.3773 376.453 52.6011L376.862 54.5587C377.972 54.3265 378.974 54.0797 379.865 53.8173L379.301 51.8986ZM376.475 52.5968C375.393 52.798 374.311 52.9867 373.229 53.1628L373.55 55.1369C374.647 54.9583 375.744 54.7671 376.84 54.563L376.475 52.5968ZM373.252 53.1595C372.161 53.3116 371.172 53.451 370.285 53.5779L370.567 55.5578C371.453 55.4313 372.44 55.2921 373.528 55.1403L373.252 53.1595ZM370.281 53.5784C368.315 53.8667 366.569 54.3294 365.054 54.9786L365.842 56.8169C367.165 56.2501 368.737 55.8262 370.571 55.5572L370.281 53.5784ZM365.054 54.9786C363.506 55.6423 362.253 56.5635 361.345 57.7644L362.94 58.9706C363.603 58.0944 364.554 57.3691 365.842 56.8169L365.054 54.9786ZM361.352 57.755C360.407 58.9745 359.965 60.4683 359.965 62.1673H361.965C361.965 60.8265 362.308 59.7871 362.933 58.9801L361.352 57.755ZM359.965 62.1673C359.965 64.6478 360.883 66.6512 362.769 68.0285L363.948 66.4133C362.643 65.46 361.965 64.0943 361.965 62.1673H359.965ZM362.783 68.0389C364.611 69.3242 366.878 69.9308 369.514 69.9308V67.9308C367.185 67.9308 365.348 67.3974 363.934 66.4028L362.783 68.0389ZM407.094 100.886H406.094V101.886H407.094V100.886ZM407.094 20.6364V19.6364H406.094V20.6364H407.094ZM423.053 20.6364H424.053V19.6364H423.053V20.6364ZM423.053 30.4396H422.053V31.4396H423.053V30.4396ZM423.775 30.4396V31.4396H424.42L424.686 30.8512L423.775 30.4396ZM426.853 25.652L426.083 25.013L426.082 25.0142L426.853 25.652ZM432.172 21.5483L432.619 22.4427L432.623 22.4407L432.172 21.5483ZM452.159 23.2202L451.632 24.0702L451.636 24.0729L452.159 23.2202ZM460.784 33.2134L459.884 33.6483L459.884 33.6503L460.784 33.2134ZM460.86 66.3849L459.955 65.9604L459.954 65.9626L460.86 66.3849ZM452.349 76.5302L452.887 77.3731L452.888 77.3721L452.349 76.5302ZM432.324 78.392L431.894 79.2947L431.898 79.2966L432.324 78.392ZM426.967 74.4783L426.213 75.136L426.218 75.142L426.967 74.4783ZM423.775 69.6527L424.686 69.24L424.419 68.6527H423.775V69.6527ZM423.281 69.6527V68.6527H422.281V69.6527H423.281ZM423.281 100.886V101.886H424.281V100.886H423.281ZM428.562 64.941L427.942 65.7251L427.948 65.7304L428.562 64.941ZM441.899 64.9031L442.52 65.6871L442.527 65.6818L441.899 64.9031ZM446.041 58.8235L445.103 58.4774L445.101 58.4825L446.041 58.8235ZM446.079 40.9268L447.018 40.5829L446.079 40.9268ZM441.937 34.9233L442.558 34.1392L441.937 34.9233ZM428.524 34.8473L427.917 34.0526L427.912 34.0568L428.524 34.8473ZM424.383 40.7749L423.447 40.4227L424.383 40.7749ZM408.094 100.886V20.6364H406.094V100.886H408.094ZM407.094 21.6364H423.053V19.6364H407.094V21.6364ZM422.053 20.6364V30.4396H424.053V20.6364H422.053ZM423.053 31.4396H423.775V29.4396H423.053V31.4396ZM424.686 30.8512C425.352 29.3777 426.325 27.8568 427.623 26.2898L426.082 25.0142C424.695 26.6896 423.616 28.3605 422.863 30.028L424.686 30.8512ZM427.622 26.291C428.89 24.7647 430.548 23.4786 432.619 22.4427L431.725 20.6539C429.44 21.7965 427.551 23.2462 426.083 25.013L427.622 26.291ZM432.623 22.4407C434.65 21.4159 437.22 20.8764 440.38 20.8764V18.8764C437.004 18.8764 434.102 19.4515 431.721 20.6559L432.623 22.4407ZM440.38 20.8764C444.45 20.8764 448.194 21.9396 451.632 24.0702L452.685 22.3702C448.929 20.0424 444.82 18.8764 440.38 18.8764V20.8764ZM451.636 24.0729C455.043 26.1602 457.799 29.3321 459.884 33.6483L461.684 32.7785C459.463 28.1781 456.468 24.6878 452.681 22.3675L451.636 24.0729ZM459.884 33.6503C461.952 37.9076 463.014 43.3068 463.014 49.8942H465.014C465.014 43.1065 463.922 37.3853 461.684 32.7765L459.884 33.6503ZM463.014 49.8942C463.014 56.3018 461.978 61.6445 459.955 65.9604L461.765 66.8095C463.947 62.1581 465.014 56.5069 465.014 49.8942H463.014ZM459.954 65.9626C457.944 70.2757 455.224 73.5001 451.809 75.6882L452.888 77.3721C456.668 74.95 459.622 71.4108 461.766 66.8073L459.954 65.9626ZM451.811 75.6873C448.407 77.8596 444.593 78.9499 440.342 78.9499V80.9499C444.956 80.9499 449.147 79.7604 452.887 77.3731L451.811 75.6873ZM440.342 78.9499C437.307 78.9499 434.788 78.4478 432.75 77.4875L431.898 79.2966C434.268 80.4135 437.094 80.9499 440.342 80.9499V78.9499ZM432.754 77.4894C430.679 76.4999 429.007 75.2713 427.715 73.8147L426.218 75.142C427.713 76.8265 429.612 78.2071 431.894 79.2947L432.754 77.4894ZM427.72 73.8207C426.379 72.2848 425.373 70.7573 424.686 69.24L422.864 70.0654C423.646 71.7905 424.768 73.4801 426.213 75.136L427.72 73.8207ZM423.775 68.6527H423.281V70.6527H423.775V68.6527ZM422.281 69.6527V100.886H424.281V69.6527H422.281ZM423.281 99.8864H407.094V101.886H423.281V99.8864ZM421.939 49.8182C421.939 53.3782 422.432 56.5284 423.446 59.2486L425.32 58.5504C424.408 56.103 423.939 53.199 423.939 49.8182H421.939ZM423.446 59.2486C424.46 61.9716 425.95 64.1484 427.942 65.7251L429.183 64.157C427.527 62.846 426.231 60.9951 425.32 58.5504L423.446 59.2486ZM427.948 65.7304C429.97 67.303 432.411 68.0689 435.212 68.0689V66.0689C432.795 66.0689 430.802 65.4163 429.176 64.1517L427.948 65.7304ZM435.212 68.0689C438.04 68.0689 440.496 67.2892 442.52 65.6871L441.279 64.119C439.655 65.4047 437.653 66.0689 435.212 66.0689V68.0689ZM442.527 65.6818C444.516 64.0794 445.993 61.8899 446.981 59.1645L445.101 58.4825C444.215 60.9247 442.931 62.7883 441.272 64.1243L442.527 65.6818ZM446.979 59.1696C447.991 56.4283 448.485 53.3055 448.485 49.8182H446.485C446.485 53.1197 446.017 56.0005 445.103 58.4774L446.979 59.1696ZM448.485 49.8182C448.485 46.3585 448.004 43.2741 447.018 40.5829L445.14 41.2708C446.029 43.6965 446.485 46.5397 446.485 49.8182H448.485ZM447.018 40.5829C446.028 37.8812 444.55 35.716 442.558 34.1392L441.317 35.7073C442.973 37.0183 444.255 38.8555 445.14 41.2708L447.018 40.5829ZM442.558 34.1392C440.533 32.5358 438.063 31.7575 435.212 31.7575V33.7575C437.68 33.7575 439.694 34.423 441.317 35.7073L442.558 34.1392ZM435.212 31.7575C432.392 31.7575 429.941 32.507 427.917 34.0526L429.131 35.642C430.756 34.4011 432.763 33.7575 435.212 33.7575V31.7575ZM427.912 34.0568C425.94 35.5843 424.461 37.7261 423.447 40.4227L425.319 41.127C426.229 38.7066 427.512 36.8967 429.137 35.6378L427.912 34.0568ZM423.447 40.4227C422.432 43.1195 421.939 46.2585 421.939 49.8182H423.939C423.939 46.437 424.408 43.5471 425.319 41.127L423.447 40.4227ZM502.639 20.6364H503.639V19.6364H502.639V20.6364ZM502.639 32.7955V33.7955H503.639V32.7955H502.639ZM467.491 32.7955H466.491V33.7955H467.491V32.7955ZM467.491 20.6364V19.6364H466.491V20.6364H467.491ZM475.471 6.65341V5.65341H474.471V6.65341H475.471ZM491.657 6.65341H492.657V5.65341H491.657V6.65341ZM492.341 64.5611L491.463 65.04L491.47 65.0513L492.341 64.5611ZM494.241 66.271L493.865 67.1975L493.875 67.2014L494.241 66.271ZM499.409 66.5749L499.573 67.5613L499.589 67.5587L499.605 67.5555L499.409 66.5749ZM501.157 66.233L502.135 66.0262L501.933 65.07L500.972 65.2501L501.157 66.233ZM503.703 78.2781L504.001 79.2325L504.869 78.9612L504.681 78.0713L503.703 78.2781ZM500.283 79.152L500.064 78.1762L500.056 78.178L500.048 78.1799L500.283 79.152ZM494.925 79.7979L494.889 78.7986L494.886 78.7987L494.925 79.7979ZM484.666 78.2401L484.288 79.1657L484.29 79.1669L484.666 78.2401ZM477.864 72.6925L478.704 72.1496L477.864 72.6925ZM475.471 63.1932L476.471 63.1998V63.1932H475.471ZM501.639 20.6364V32.7955H503.639V20.6364H501.639ZM502.639 31.7955H467.491V33.7955H502.639V31.7955ZM468.491 32.7955V20.6364H466.491V32.7955H468.491ZM467.491 21.6364H502.639V19.6364H467.491V21.6364ZM475.471 7.65341H491.657V5.65341H475.471V7.65341ZM490.657 6.65341V61.0653H492.657V6.65341H490.657ZM490.657 61.0653C490.657 62.641 490.894 63.9965 491.464 65.0399L493.219 64.0822C492.877 63.4538 492.657 62.4788 492.657 61.0653H490.657ZM491.47 65.0513C492.029 66.0459 492.831 66.7773 493.865 67.1974L494.618 65.3445C494.03 65.1059 493.565 64.6975 493.213 64.0708L491.47 65.0513ZM493.875 67.2014C494.849 67.5853 495.94 67.7649 497.129 67.7649V65.7649C496.139 65.7649 495.305 65.6152 494.608 65.3405L493.875 67.2014ZM497.129 67.7649C497.945 67.7649 498.76 67.6969 499.573 67.5613L499.244 65.5885C498.538 65.7063 497.833 65.7649 497.129 65.7649V67.7649ZM499.605 67.5555C500.364 67.4038 500.942 67.2907 501.341 67.2158L500.972 65.2501C500.561 65.3272 499.974 65.4421 499.213 65.5943L499.605 67.5555ZM500.178 66.4397L502.724 78.4848L504.681 78.0713L502.135 66.0262L500.178 66.4397ZM503.404 77.3236C502.632 77.5648 501.524 77.8491 500.064 78.1762L500.502 80.1278C501.98 79.7963 503.151 79.498 504.001 79.2325L503.404 77.3236ZM500.048 78.1799C498.664 78.5141 496.949 78.7242 494.889 78.7986L494.961 80.7973C497.107 80.7197 498.963 80.4992 500.517 80.1241L500.048 78.1799ZM494.886 78.7987C491.095 78.9464 487.822 78.4397 485.042 77.3132L484.29 79.1669C487.387 80.4215 490.953 80.9534 494.964 80.7972L494.886 78.7987ZM485.044 77.3144C482.31 76.1968 480.208 74.4761 478.704 72.1496L477.025 73.2354C478.763 75.9245 481.196 77.9022 484.288 79.1657L485.044 77.3144ZM478.704 72.1496C477.215 69.8457 476.446 66.8843 476.471 63.1998L474.471 63.1866C474.444 67.1522 475.272 70.5236 477.025 73.2354L478.704 72.1496ZM476.471 63.1932V6.65341H474.471V63.1932H476.471ZM520.441 76.4922L519.945 77.3608L519.951 77.3642L520.441 76.4922ZM510.486 66.081L509.597 66.5401L509.599 66.5422L510.486 66.081ZM510.486 34.2773L509.596 33.8202L510.486 34.2773ZM520.327 23.6761L519.816 22.8168L519.813 22.8182L520.327 23.6761ZM546.051 21.7383L545.701 22.6749L545.709 22.6781L546.051 21.7383ZM554.79 27.2479L554.087 27.9586L554.091 27.9622L554.79 27.2479ZM560.642 36.5192L559.705 36.8696L559.706 36.8717L560.642 36.5192ZM562.732 53.9599V54.9599H563.732V53.9599H562.732ZM513.45 53.9599H512.45V54.9599H513.45V53.9599ZM513.45 43.9286V42.9286H512.45V43.9286H513.45ZM547.495 43.9286V44.9286H548.495V43.9286H547.495ZM545.975 37.7351L545.104 38.2259L545.975 37.7351ZM541.757 33.5174L541.252 34.3803L541.259 34.3845L541.267 34.3886L541.757 33.5174ZM529.028 33.6694L529.539 34.5289L529.543 34.5269L529.028 33.6694ZM524.621 38.191L525.49 38.6847L525.493 38.6797L524.621 38.191ZM522.987 44.4606L521.987 44.4496V44.4606H522.987ZM524.583 61.4833L523.69 61.9348L523.695 61.9433L524.583 61.4833ZM541.149 67.2969L540.828 66.3498L541.149 67.2969ZM544.987 65.017L544.298 64.2929L544.987 65.017ZM547.419 61.2933L547.485 60.2955L546.746 60.2468L546.484 60.9387L547.419 61.2933ZM562.39 62.2812L563.368 62.488L563.607 61.3594L562.456 61.2834L562.39 62.2812ZM557.716 71.7045L556.965 71.045L556.964 71.0455L557.716 71.7045ZM548.673 77.9361L549.044 78.8646L549.048 78.8632L548.673 77.9361ZM535.944 79.1399C530.076 79.1399 525.084 77.9522 520.931 75.6202L519.951 77.3642C524.461 79.8958 529.805 81.1399 535.944 81.1399V79.1399ZM520.937 75.6236C516.801 73.2637 513.617 69.9363 511.373 65.6198L509.599 66.5422C512.016 71.193 515.469 74.8064 519.945 77.3607L520.937 75.6236ZM511.374 65.6218C509.131 61.2819 507.99 56.1135 507.99 50.0842H505.99C505.99 56.3659 507.18 61.8621 509.597 66.5401L511.374 65.6218ZM507.99 50.0842C507.99 44.2114 509.129 39.1043 511.375 34.7345L509.596 33.8202C507.181 38.5191 505.99 43.9498 505.99 50.0842H507.99ZM511.375 34.7345C513.623 30.3603 516.776 26.9679 520.841 24.5341L519.813 22.8182C515.417 25.4506 512.009 29.1258 509.596 33.8202L511.375 34.7345ZM520.839 24.5354C524.917 22.1079 529.725 20.8764 535.298 20.8764V18.8764C529.422 18.8764 524.249 20.178 519.816 22.8168L520.839 24.5354ZM535.298 20.8764C539.039 20.8764 542.504 21.4791 545.701 22.6749L546.401 20.8017C542.962 19.515 539.258 18.8764 535.298 18.8764V20.8764ZM545.709 22.6781C548.92 23.8456 551.709 25.6049 554.087 27.9586L555.494 26.5371C552.907 23.9765 549.87 22.0628 546.393 20.7985L545.709 22.6781ZM554.091 27.9622C556.481 30.304 558.357 33.2648 559.705 36.8696L561.579 36.1688C560.141 32.3261 558.116 29.106 555.49 26.5336L554.091 27.9622ZM559.706 36.8717C561.048 40.4327 561.732 44.64 561.732 49.5142H563.732C563.732 44.4584 563.023 40.0025 561.578 36.1666L559.706 36.8717ZM561.732 49.5142V53.9599H563.732V49.5142H561.732ZM562.732 52.9599H513.45V54.9599H562.732V52.9599ZM514.45 53.9599V43.9286H512.45V53.9599H514.45ZM513.45 44.9286H547.495V42.9286H513.45V44.9286ZM548.495 43.9286C548.495 41.4487 547.954 39.2111 546.846 37.2442L545.104 38.2259C546.022 39.8561 546.495 41.7475 546.495 43.9286H548.495ZM546.846 37.2442C545.743 35.2865 544.206 33.7491 542.248 32.6462L541.267 34.3886C542.906 35.3122 544.18 36.5866 545.104 38.2259L546.846 37.2442ZM542.263 32.6545C540.315 31.5137 538.071 30.9595 535.564 30.9595V32.9595C537.768 32.9595 539.653 33.444 541.252 34.3803L542.263 32.6545ZM535.564 30.9595C532.946 30.9595 530.586 31.5688 528.514 32.8119L529.543 34.5269C531.271 33.4901 533.268 32.9595 535.564 32.9595V30.9595ZM528.517 32.8099C526.492 34.014 524.898 35.6491 523.748 37.7024L525.493 38.6797C526.471 36.9333 527.816 35.5539 529.539 34.5289L528.517 32.8099ZM523.751 37.6974C522.598 39.7294 522.014 41.9873 521.987 44.4496L523.987 44.4716C524.01 42.3236 524.516 40.4017 525.49 38.6847L523.751 37.6974ZM521.987 44.4606V53.9979H523.987V44.4606H521.987ZM521.987 53.9979C521.987 57.0077 522.542 59.6643 523.69 61.9348L525.475 61.0318C524.496 59.0973 523.987 56.7636 523.987 53.9979H521.987ZM523.695 61.9433C524.868 64.2087 526.533 65.9739 528.681 67.2131L529.68 65.4808C527.876 64.4401 526.476 62.9629 525.471 61.0233L523.695 61.9433ZM528.681 67.2131C530.835 68.4559 533.357 69.0568 536.21 69.0568V67.0568C533.642 67.0568 531.478 66.5178 529.68 65.4808L528.681 67.2131ZM536.21 69.0568C538.103 69.0568 539.859 68.7901 541.471 68.2439L540.828 66.3498C539.451 66.8169 537.914 67.0568 536.21 67.0568V69.0568ZM541.471 68.2439C543.092 67.6942 544.5 66.8619 545.677 65.7412L544.298 64.2929C543.346 65.1987 542.196 65.8863 540.828 66.3498L541.471 68.2439ZM545.677 65.7412C546.857 64.6176 547.747 63.2472 548.354 61.648L546.484 60.9387C545.976 62.2778 545.246 63.39 544.298 64.2929L545.677 65.7412ZM547.353 62.2912L562.324 63.2791L562.456 61.2834L547.485 60.2955L547.353 62.2912ZM561.411 62.0745C560.686 65.5088 559.204 68.4928 556.965 71.045L558.468 72.3641C560.94 69.5461 562.574 66.2478 563.368 62.488L561.411 62.0745ZM556.964 71.0455C554.749 73.5733 551.87 75.5654 548.298 77.0089L549.048 78.8632C552.872 77.3176 556.022 75.1553 558.468 72.3636L556.964 71.0455ZM548.302 77.0076C544.769 78.4206 540.656 79.1399 535.944 79.1399V81.1399C540.857 81.1399 545.231 80.3901 549.044 78.8646L548.302 77.0076ZM570.085 79H569.085V80H570.085V79ZM570.085 20.6364V19.6364H569.085V20.6364H570.085ZM585.778 20.6364H586.778V19.6364H585.778V20.6364ZM585.778 30.8196H584.778V31.8196H585.778V30.8196ZM586.386 30.8196V31.8196H587.134L587.345 31.1014L586.386 30.8196ZM591.744 22.6122L592.337 23.4171L592.342 23.4132L591.744 22.6122ZM603.029 19.9524L603.136 18.9582L603.029 19.9524ZM605.498 20.3704H606.498V19.5896L605.741 19.4002L605.498 20.3704ZM605.498 34.7333L605.211 35.6911L606.498 36.0773V34.7333H605.498ZM592.275 35.4173L592.756 36.2942L592.76 36.292L592.275 35.4173ZM587.868 39.6729L587.009 39.1602L587.004 39.1691L587.868 39.6729ZM586.272 79V80H587.272V79H586.272ZM571.085 79V20.6364H569.085V79H571.085ZM570.085 21.6364H585.778V19.6364H570.085V21.6364ZM584.778 20.6364V30.8196H586.778V20.6364H584.778ZM585.778 31.8196H586.386V29.8196H585.778V31.8196ZM587.345 31.1014C588.361 27.6431 590.04 25.111 592.337 23.4171L591.15 21.8074C588.432 23.8119 586.539 26.7513 585.426 30.5378L587.345 31.1014ZM592.342 23.4132C594.669 21.6738 597.345 20.8004 600.407 20.8004V18.8004C596.933 18.8004 593.833 19.8016 591.145 21.8112L592.342 23.4132ZM600.407 20.8004C601.176 20.8004 602.014 20.8485 602.921 20.9466L603.136 18.9582C602.169 18.8536 601.259 18.8004 600.407 18.8004V20.8004ZM602.921 20.9466C603.825 21.0444 604.602 21.1769 605.256 21.3405L605.741 19.4002C604.977 19.2092 604.107 19.0631 603.136 18.9582L602.921 20.9466ZM604.498 20.3704V34.7333H606.498V20.3704H604.498ZM605.786 33.7755C604.951 33.5252 603.84 33.3141 602.476 33.134L602.214 35.1167C603.535 35.2912 604.526 35.4855 605.211 35.6911L605.786 33.7755ZM602.476 33.134C601.099 32.9521 599.826 32.8594 598.659 32.8594V34.8594C599.722 34.8594 600.906 34.944 602.214 35.1167L602.476 33.134ZM598.659 32.8594C596.128 32.8594 593.83 33.4129 591.791 34.5425L592.76 36.292C594.47 35.3444 596.428 34.8594 598.659 34.8594V32.8594ZM591.795 34.5403C589.788 35.6398 588.189 37.1846 587.009 39.1602L588.726 40.1857C589.725 38.5135 591.064 37.2212 592.756 36.2942L591.795 34.5403ZM587.004 39.1691C585.84 41.1646 585.272 43.4453 585.272 45.9805H587.272C587.272 43.7533 587.768 41.829 588.732 40.1768L587.004 39.1691ZM585.272 45.9805V79H587.272V45.9805H585.272ZM586.272 78H570.085V80H586.272V78Z" fill="white"/>
</svg>
