<svg width="614" height="101" viewBox="0 0 614 101" fill="none" xmlns="http://www.w3.org/2000/svg">
<path d="M74.3381 40.0909C74.3381 48.6529 72.6915 55.9104 69.3984 61.8633C66.1054 67.8162 61.647 72.3378 56.0234 75.4283C50.4252 78.5187 44.143 80.0639 37.1768 80.0639C30.1854 80.0639 23.8905 78.506 18.2923 75.3903C12.694 72.2745 8.24834 67.7528 4.95526 61.8253C1.6875 55.8724 0.0536221 48.6276 0.0536221 40.0909C0.0536221 31.5289 1.6875 24.2714 4.95526 18.3185C8.24834 12.3656 12.694 7.84399 18.2923 4.75355C23.8905 1.66311 30.1854 0.117895 37.1768 0.117895C44.143 0.117895 50.4252 1.66311 56.0234 4.75355C61.647 7.84399 66.1054 12.3656 69.3984 18.3185C72.6915 24.2714 74.3381 31.5289 74.3381 40.0909ZM55.1115 40.0909C55.1115 35.0246 54.3896 30.7436 52.9457 27.2479C51.5271 23.7521 49.4753 21.105 46.7901 19.3065C44.1303 17.5079 40.9259 16.6087 37.1768 16.6087C33.4531 16.6087 30.2487 17.5079 27.5636 19.3065C24.8784 21.105 22.8139 23.7521 21.37 27.2479C19.9515 30.7436 19.2422 35.0246 19.2422 40.0909C19.2422 45.1572 19.9515 49.4382 21.37 52.9339C22.8139 56.4297 24.8784 59.0768 27.5636 60.8754C30.2487 62.6739 33.4531 63.5732 37.1768 63.5732C40.9259 63.5732 44.1303 62.6739 46.7901 60.8754C49.4753 59.0768 51.5271 56.4297 52.9457 52.9339C54.3896 49.4382 55.1115 45.1572 55.1115 40.0909ZM119.764 53.8079V20.6364H138.307V79H120.6V68.1328H119.992C118.701 71.7045 116.497 74.5417 113.381 76.6442C110.29 78.7214 106.554 79.7599 102.172 79.7599C98.1947 79.7599 94.699 78.848 91.6845 77.0241C88.6701 75.2003 86.3269 72.6545 84.6551 69.3867C82.9832 66.0936 82.1346 62.2433 82.1092 57.8356V20.6364H100.69V54.1879C100.715 57.3543 101.551 59.8494 103.198 61.6733C104.844 63.4972 107.086 64.4091 109.923 64.4091C111.772 64.4091 113.432 64.0038 114.901 63.1932C116.395 62.3572 117.573 61.154 118.435 59.5835C119.321 57.9876 119.764 56.0624 119.764 53.8079ZM146.924 79V20.6364H164.972V31.2756H165.58C166.644 27.4252 168.379 24.5627 170.786 22.6882C173.192 20.7884 175.991 19.8384 179.183 19.8384C180.045 19.8384 180.931 19.9018 181.843 20.0284C182.755 20.1297 183.604 20.2944 184.389 20.5224V36.6712C183.502 36.3672 182.337 36.1265 180.893 35.9492C179.475 35.7719 178.208 35.6832 177.093 35.6832C174.89 35.6832 172.901 36.1772 171.128 37.1651C169.38 38.1277 167.999 39.483 166.986 41.2308C165.998 42.9534 165.504 44.9799 165.504 47.3104V79H146.924ZM279.165 29.3757H260.166C259.913 27.4252 259.394 25.6647 258.608 24.0941C257.823 22.5236 256.784 21.181 255.493 20.0664C254.201 18.9518 252.668 18.1032 250.895 17.5206C249.147 16.9126 247.209 16.6087 245.081 16.6087C241.307 16.6087 238.052 17.5333 235.316 19.3825C232.606 21.2317 230.516 23.9041 229.047 27.3999C227.603 30.8956 226.881 35.1259 226.881 40.0909C226.881 45.2585 227.615 49.5902 229.085 53.0859C230.579 56.5563 232.669 59.1781 235.354 60.9513C238.065 62.6992 241.269 63.5732 244.967 63.5732C247.045 63.5732 248.932 63.3072 250.629 62.7752C252.351 62.2433 253.859 61.4706 255.151 60.4574C256.468 59.4188 257.544 58.1649 258.38 56.6957C259.242 55.2011 259.837 53.5166 260.166 51.642L279.165 51.756C278.835 55.2011 277.835 58.5955 276.163 61.9393C274.516 65.283 272.249 68.3355 269.362 71.0966C266.474 73.8324 262.953 76.0109 258.798 77.6321C254.669 79.2533 249.932 80.0639 244.587 80.0639C237.545 80.0639 231.238 78.5187 225.665 75.4283C220.117 72.3125 215.735 67.7782 212.518 61.8253C209.301 55.8724 207.692 48.6276 207.692 40.0909C207.692 31.5289 209.326 24.2714 212.594 18.3185C215.862 12.3656 220.282 7.84399 225.855 4.75355C231.428 1.66311 237.672 0.117895 244.587 0.117895C249.299 0.117895 253.656 0.776513 257.658 2.09375C261.661 3.38565 265.182 5.28551 268.222 7.79332C271.261 10.2758 273.731 13.3282 275.631 16.9506C277.531 20.573 278.709 24.7147 279.165 29.3757ZM305.298 45.7145V79H286.718V1.18182H304.69V31.3516H305.336C306.653 27.7545 308.807 24.9427 311.796 22.9162C314.81 20.8897 318.496 19.8764 322.853 19.8764C326.956 19.8764 330.528 20.7884 333.568 22.6122C336.608 24.4107 338.964 26.9566 340.635 30.2496C342.333 33.5427 343.169 37.3931 343.143 41.8008V79H324.563V45.4485C324.588 42.2061 323.777 39.6729 322.131 37.8491C320.484 36.0252 318.166 35.1133 315.177 35.1133C313.227 35.1133 311.504 35.5439 310.01 36.4052C308.541 37.2411 307.388 38.4444 306.552 40.0149C305.741 41.5855 305.323 43.4853 305.298 45.7145ZM367.985 79.9879C364.261 79.9879 360.955 79.3673 358.067 78.1261C355.205 76.8595 352.938 74.9596 351.266 72.4265C349.619 69.868 348.796 66.6636 348.796 62.8132C348.796 59.5708 349.366 56.835 350.506 54.6058C351.646 52.3767 353.216 50.5655 355.218 49.1722C357.219 47.779 359.524 46.7277 362.133 46.0185C364.742 45.2839 367.529 44.7899 370.492 44.5366C373.811 44.2326 376.483 43.916 378.51 43.5866C380.536 43.232 382.006 42.738 382.918 42.1048C383.855 41.4461 384.323 40.5215 384.323 39.331V39.141C384.323 37.1905 383.652 35.6832 382.31 34.6193C380.967 33.5554 379.156 33.0234 376.876 33.0234C374.419 33.0234 372.443 33.5554 370.948 34.6193C369.454 35.6832 368.504 37.1525 368.099 39.027L350.962 38.419C351.469 34.8726 352.773 31.7062 354.876 28.9197C357.003 26.108 359.917 23.9041 363.615 22.3082C367.339 20.687 371.81 19.8764 377.028 19.8764C380.752 19.8764 384.184 20.3197 387.325 21.2063C390.466 22.0676 393.202 23.3342 395.533 25.006C397.863 26.6526 399.662 28.6791 400.928 31.0856C402.22 33.4921 402.866 36.2405 402.866 39.331V79H385.387V70.8686H384.931C383.893 72.8445 382.563 74.5163 380.942 75.8842C379.346 77.2521 377.459 78.2781 375.28 78.962C373.127 79.646 370.695 79.9879 367.985 79.9879ZM373.722 67.8288C375.723 67.8288 377.522 67.4235 379.118 66.6129C380.739 65.8023 382.031 64.6877 382.994 63.2692C383.956 61.8253 384.437 60.1534 384.437 58.2536V52.706C383.905 52.9846 383.26 53.2379 382.5 53.4659C381.765 53.6939 380.954 53.9092 380.068 54.1119C379.181 54.3145 378.269 54.4918 377.332 54.6438C376.395 54.7958 375.495 54.9351 374.634 55.0618C372.886 55.3404 371.392 55.7711 370.151 56.3537C368.935 56.9363 367.997 57.6963 367.339 58.6335C366.705 59.5455 366.389 60.6347 366.389 61.9013C366.389 63.8265 367.073 65.2957 368.441 66.3089C369.834 67.3222 371.594 67.8288 373.722 67.8288ZM411.017 100.886V20.6364H429.408V30.6296H429.978C430.738 28.8564 431.814 27.1465 433.208 25.5C434.626 23.8535 436.425 22.5109 438.603 21.4723C440.807 20.4084 443.441 19.8764 446.507 19.8764C450.56 19.8764 454.347 20.9403 457.868 23.0682C461.414 25.196 464.277 28.4764 466.455 32.9094C468.634 37.3424 469.723 42.9914 469.723 49.8562C469.723 56.4677 468.672 62.0026 466.569 66.4609C464.492 70.9193 461.68 74.263 458.134 76.4922C454.613 78.7214 450.699 79.8359 446.393 79.8359C443.454 79.8359 440.908 79.3546 438.755 78.392C436.602 77.4295 434.791 76.1629 433.322 74.5923C431.878 73.0218 430.763 71.3372 429.978 69.5387H429.598V100.886H411.017ZM429.218 49.8182C429.218 52.9593 429.636 55.6951 430.472 58.0256C431.333 60.3561 432.562 62.1673 434.157 63.4592C435.779 64.7257 437.717 65.359 439.971 65.359C442.251 65.359 444.189 64.7257 445.785 63.4592C447.38 62.1673 448.584 60.3561 449.394 58.0256C450.23 55.6951 450.648 52.9593 450.648 49.8182C450.648 46.6771 450.23 43.954 449.394 41.6488C448.584 39.3436 447.38 37.5578 445.785 36.2912C444.214 35.0246 442.276 34.3913 439.971 34.3913C437.691 34.3913 435.753 35.012 434.157 36.2532C432.562 37.4944 431.333 39.2676 430.472 41.5728C429.636 43.878 429.218 46.6264 429.218 49.8182ZM509.193 20.6364V34.3153H472.374V20.6364H509.193ZM480.087 6.65341H498.668V60.6474C498.668 61.7873 498.845 62.7119 499.2 63.4212C499.58 64.1051 500.124 64.5991 500.834 64.9031C501.543 65.1817 502.392 65.321 503.38 65.321C504.089 65.321 504.836 65.2577 505.621 65.131C506.432 64.979 507.04 64.8524 507.445 64.7511L510.257 78.1641C509.37 78.4174 508.117 78.734 506.495 79.114C504.899 79.494 502.987 79.7346 500.758 79.8359C496.401 80.0386 492.664 79.532 489.549 78.3161C486.458 77.0748 484.09 75.1496 482.443 72.5405C480.822 69.9313 480.037 66.6509 480.087 62.6992V6.65341ZM542.118 80.1019C536.014 80.1019 530.745 78.8987 526.312 76.4922C521.904 74.0604 518.51 70.6026 516.128 66.119C513.773 61.61 512.595 56.2524 512.595 50.0462C512.595 44.0173 513.785 38.7483 516.166 34.2393C518.548 29.705 521.904 26.1839 526.236 23.6761C530.567 21.143 535.672 19.8764 541.548 19.8764C545.703 19.8764 549.503 20.5224 552.948 21.8143C556.393 23.1062 559.369 25.0187 561.877 27.5518C564.385 30.085 566.335 33.2134 567.729 36.9371C569.122 40.6355 569.818 44.8785 569.818 49.6662V54.3018H519.092V43.5107H552.53C552.504 41.5348 552.036 39.7743 551.124 38.229C550.212 36.6838 548.958 35.4806 547.362 34.6193C545.791 33.7327 543.98 33.2894 541.928 33.2894C539.851 33.2894 537.989 33.758 536.343 34.6953C534.696 35.6072 533.392 36.8612 532.429 38.457C531.467 40.0276 530.96 41.8134 530.909 43.8146V54.7958C530.909 57.177 531.378 59.2668 532.315 61.0653C533.252 62.8385 534.582 64.2191 536.305 65.207C538.027 66.195 540.079 66.6889 542.46 66.6889C544.107 66.6889 545.601 66.4609 546.944 66.005C548.287 65.549 549.439 64.8777 550.402 63.9911C551.364 63.1045 552.086 62.0153 552.568 60.7234L569.628 61.2173C568.919 65.0424 567.361 68.3735 564.955 71.2106C562.574 74.0224 559.445 76.2135 555.569 77.7841C551.694 79.3293 547.21 80.1019 542.118 80.1019ZM576.098 79V20.6364H594.147V31.2756H594.755C595.819 27.4252 597.554 24.5627 599.96 22.6882C602.367 20.7884 605.166 19.8384 608.358 19.8384C609.219 19.8384 610.106 19.9018 611.018 20.0284C611.93 20.1297 612.778 20.2944 613.563 20.5224V36.6712C612.677 36.3672 611.512 36.1265 610.068 35.9492C608.649 35.7719 607.383 35.6832 606.268 35.6832C604.064 35.6832 602.076 36.1772 600.302 37.1651C598.554 38.1277 597.174 39.483 596.161 41.2308C595.173 42.9534 594.679 44.9799 594.679 47.3104V79H576.098Z" fill="white"/>
</svg>
