<svg width="368" height="99" viewBox="0 0 368 99" fill="none" xmlns="http://www.w3.org/2000/svg">
<path d="M22.4387 98.341C18.8247 98.341 15.6224 97.9521 12.8319 97.1745C10.0871 96.351 7.66254 95.2074 5.5582 93.7435C3.49961 92.2796 1.64688 90.5641 0 88.597L8.57747 78.9902C10.8648 81.918 13.2436 83.8622 15.7139 84.8229C18.23 85.7378 20.5859 86.1953 22.7818 86.1953C23.651 86.1953 24.4286 86.1267 25.1148 85.9894C25.801 85.8064 26.3271 85.532 26.6931 85.166C27.0591 84.8 27.2421 84.2968 27.2421 83.6564C27.2421 83.0617 27.0362 82.5584 26.6245 82.1467C26.2585 81.735 25.7553 81.3919 25.1148 81.1174C24.4744 80.7972 23.7653 80.5456 22.9876 80.3626C22.2557 80.1339 21.5237 79.9509 20.7918 79.8136C20.1056 79.6764 19.488 79.5392 18.9391 79.4019C16.1943 78.7615 13.7926 77.9838 11.734 77.0689C9.67539 76.1539 7.9599 75.056 6.5875 73.7751C5.2151 72.4942 4.18581 71.0303 3.49961 69.3834C2.85916 67.7366 2.53893 65.8838 2.53893 63.8252C2.53893 61.4922 3.06502 59.3649 4.11719 57.4436C5.2151 55.5222 6.65612 53.8754 8.44024 52.503C10.2701 51.1306 12.3287 50.0784 14.616 49.3465C16.9491 48.6145 19.3508 48.2485 21.8211 48.2485C25.4351 48.2485 28.4543 48.5916 30.8789 49.2778C33.3035 49.9183 35.3392 50.8561 36.9861 52.0912C38.6329 53.3264 40.0511 54.7674 41.2405 56.4143L32.5944 64.7173C31.588 63.7566 30.5358 62.9789 29.4379 62.3842C28.34 61.7438 27.1963 61.2863 26.0069 61.0118C24.8632 60.6916 23.7196 60.5315 22.5759 60.5315C21.5237 60.5315 20.6317 60.623 19.8997 60.806C19.1678 60.9432 18.596 61.1948 18.1842 61.5608C17.7725 61.881 17.5667 62.3385 17.5667 62.9332C17.5667 63.5279 17.8183 64.0311 18.3215 64.4428C18.8704 64.8088 19.5338 65.129 20.3115 65.4035C21.1349 65.678 21.9355 65.9067 22.7132 66.0897C23.5366 66.2269 24.2228 66.3413 24.7717 66.4328C27.2878 66.8902 29.598 67.5307 31.7023 68.3541C33.8067 69.1318 35.6365 70.1383 37.1919 71.3734C38.7931 72.5628 40.0053 74.0725 40.8288 75.9023C41.698 77.6864 42.1326 79.8136 42.1326 82.284C42.1326 85.8064 41.2405 88.7571 39.4564 91.1359C37.718 93.5147 35.3621 95.3217 32.3885 96.5569C29.415 97.7463 26.0984 98.341 22.4387 98.341Z" fill="white"/>
<path d="M45.1261 97.6548V85.6463H53.5663V61.6294H45.1261V49.6209H76.8284V61.6294H68.3882V85.6463H76.8284V97.6548H45.1261Z" fill="white"/>
<path d="M103.47 98.341C99.3523 98.341 95.6926 97.7234 92.4904 96.4883C89.3339 95.2531 86.6577 93.5147 84.4619 91.2732C82.266 89.0316 80.5963 86.3783 79.4526 83.3133C78.3547 80.2482 77.8057 76.9087 77.8057 73.2948C77.8057 69.635 78.4233 66.2955 79.6585 63.2763C80.9394 60.2113 82.7692 57.558 85.1481 55.3164C87.5269 53.0748 90.3403 51.3364 93.5883 50.1013C96.882 48.8661 100.542 48.2485 104.567 48.2485C107.358 48.2485 109.943 48.5916 112.322 49.2778C114.746 49.964 116.919 50.9018 118.84 52.0912C120.807 53.2349 122.5 54.5387 123.918 56.0026L115.135 65.3349C114.22 64.4657 113.236 63.7109 112.184 63.0704C111.132 62.3842 109.966 61.8581 108.685 61.4922C107.404 61.0804 105.963 60.8746 104.362 60.8746C102.715 60.8746 101.205 61.1948 99.8327 61.8353C98.4603 62.43 97.2709 63.2763 96.2645 64.3742C95.258 65.4721 94.4575 66.7988 93.8628 68.3541C93.3138 69.8638 93.0393 71.5106 93.0393 73.2948C93.0393 75.0789 93.3367 76.7486 93.9314 78.304C94.5261 79.8136 95.3495 81.1174 96.4017 82.2153C97.4539 83.3133 98.7119 84.1824 100.176 84.8229C101.64 85.4176 103.241 85.7149 104.979 85.7149C106.169 85.7149 107.244 85.532 108.204 85.166C109.211 84.7543 110.057 84.2282 110.743 83.5877C111.475 82.9015 112.047 82.101 112.459 81.186C112.87 80.2254 113.076 79.1961 113.076 78.0982V76.1082L114.998 79.4019H102.783V68.9717H126.389C126.434 69.4749 126.48 70.2984 126.526 71.442C126.617 72.5857 126.663 73.7294 126.663 74.873C126.709 75.9709 126.732 76.7258 126.732 77.1375C126.732 80.2025 126.16 83.0388 125.016 85.6463C123.872 88.2539 122.248 90.4955 120.144 92.3711C118.086 94.2467 115.638 95.7106 112.802 96.7627C109.966 97.8149 106.855 98.341 103.47 98.341Z" fill="white"/>
<path d="M155.824 98.341C151.707 98.341 148.047 97.7234 144.845 96.4883C141.689 95.2531 139.012 93.5147 136.817 91.2732C134.621 89.0316 132.951 86.3783 131.807 83.3133C130.709 80.2482 130.161 76.9087 130.161 73.2948C130.161 69.635 130.778 66.2955 132.013 63.2763C133.294 60.2113 135.124 57.558 137.503 55.3164C139.882 53.0748 142.695 51.3364 145.943 50.1013C149.237 48.8661 152.897 48.2485 156.922 48.2485C159.713 48.2485 162.297 48.5916 164.676 49.2778C167.101 49.964 169.274 50.9018 171.195 52.0912C173.162 53.2349 174.855 54.5387 176.273 56.0026L167.49 65.3349C166.575 64.4657 165.591 63.7109 164.539 63.0704C163.487 62.3842 162.32 61.8581 161.039 61.4922C159.759 61.0804 158.318 60.8746 156.716 60.8746C155.07 60.8746 153.56 61.1948 152.188 61.8353C150.815 62.43 149.626 63.2763 148.619 64.3742C147.613 65.4721 146.812 66.7988 146.218 68.3541C145.669 69.8638 145.394 71.5106 145.394 73.2948C145.394 75.0789 145.692 76.7486 146.286 78.304C146.881 79.8136 147.704 81.1174 148.757 82.2153C149.809 83.3133 151.067 84.1824 152.531 84.8229C153.994 85.4176 155.596 85.7149 157.334 85.7149C158.523 85.7149 159.598 85.532 160.559 85.166C161.566 84.7543 162.412 84.2282 163.098 83.5877C163.83 82.9015 164.402 82.101 164.814 81.186C165.225 80.2254 165.431 79.1961 165.431 78.0982V76.1082L167.352 79.4019H155.138V68.9717H178.743C178.789 69.4749 178.835 70.2984 178.881 71.442C178.972 72.5857 179.018 73.7294 179.018 74.873C179.064 75.9709 179.086 76.7258 179.086 77.1375C179.086 80.2025 178.515 83.0388 177.371 85.6463C176.227 88.2539 174.603 90.4955 172.499 92.3711C170.44 94.2467 167.993 95.7106 165.157 96.7627C162.32 97.8149 159.21 98.341 155.824 98.341Z" fill="white"/>
<path d="M183.202 97.6548V49.6209H205.709C209.048 49.6209 212.022 50.2843 214.629 51.6109C217.237 52.9376 219.273 54.7445 220.737 57.0319C222.2 59.3192 222.932 61.9496 222.932 64.9231C222.932 68.2626 222.2 71.1904 220.737 73.7065C219.273 76.2225 217.237 78.1896 214.629 79.6078C212.022 80.9802 209.048 81.6664 205.709 81.6664H197.063V97.6548H183.202ZM208.385 97.6548L196.171 75.9709L211.336 74.2554L224.922 97.6548H208.385ZM197.063 71.3734H203.376C204.519 71.3734 205.457 71.1676 206.189 70.7558C206.967 70.2984 207.539 69.6808 207.905 68.9031C208.316 68.1254 208.522 67.1876 208.522 66.0897C208.522 65.0833 208.316 64.237 207.905 63.5508C207.539 62.8188 206.944 62.2698 206.121 61.9039C205.343 61.4922 204.336 61.2863 203.101 61.2863H197.063V71.3734Z" fill="white"/>
<path d="M228.287 97.6548L247.569 49.6209H259.234L278.379 97.6548H263.695L256.009 76.6571C255.506 75.239 255.071 74.0267 254.705 73.0203C254.34 72.0139 254.019 71.0761 253.745 70.2069C253.47 69.2919 253.196 68.3313 252.921 67.3248C252.647 66.2727 252.372 65.0375 252.098 63.6194H254.431C254.157 65.0375 253.882 66.2727 253.608 67.3248C253.333 68.3313 253.036 69.2919 252.715 70.2069C252.441 71.0761 252.098 72.0139 251.686 73.0203C251.32 74.0267 250.886 75.239 250.382 76.6571L242.697 97.6548H228.287ZM237.894 90.5183L242.217 80.4312H264.518L268.429 90.5183H237.894Z" fill="white"/>
<path d="M282.183 97.6548V49.6209H303.798C307.092 49.6209 310.02 50.33 312.581 51.7481C315.143 53.1663 317.156 55.1105 318.62 57.5808C320.084 60.0511 320.816 62.8874 320.816 66.0897C320.816 69.4292 320.084 72.4027 318.62 75.0103C317.156 77.6178 315.143 79.6764 312.581 81.186C310.02 82.6499 307.092 83.3819 303.798 83.3819H297.005V97.6548H282.183ZM296.73 70.7558H301.053C301.922 70.7558 302.7 70.5957 303.386 70.2755C304.073 69.9095 304.599 69.4063 304.965 68.7659C305.376 68.1254 305.582 67.3248 305.582 66.3642C305.582 65.4035 305.376 64.6258 304.965 64.0311C304.599 63.4364 304.073 63.0018 303.386 62.7273C302.7 62.4071 301.922 62.247 301.053 62.247H296.73V70.7558Z" fill="white"/>
<path d="M353.178 97.6548V49.6209H368V97.6548H353.178ZM324.564 97.6548V49.6209H339.385V97.6548H324.564ZM330.122 80.1567L330.19 67.2562H361.55V80.1567H330.122Z" fill="white"/>
<path d="M14.7833 38.2316C12.5446 38.2316 10.5503 37.7813 8.80049 36.8806C7.05068 35.9543 5.674 34.6934 4.67044 33.098C3.6926 31.5026 3.20369 29.6756 3.20369 27.617V10.981H9.84265V27.2696C9.84265 28.2474 10.0614 29.1352 10.4988 29.9329C10.9363 30.7049 11.5281 31.3224 12.2744 31.7856C13.0206 32.2231 13.8569 32.4418 14.7833 32.4418C15.7611 32.4418 16.6231 32.2231 17.3694 31.7856C18.1414 31.3224 18.7589 30.7049 19.2221 29.9329C19.6853 29.1352 19.9169 28.2474 19.9169 27.2696V10.981H26.3243V27.617C26.3243 29.6756 25.8225 31.5026 24.8189 33.098C23.8411 34.6934 22.4773 35.9543 20.7275 36.8806C18.9777 37.7813 16.9963 38.2316 14.7833 38.2316ZM31.7531 38V10.981H43.4099C45.1082 10.981 46.6136 11.3669 47.9259 12.1389C49.264 12.9109 50.3191 13.9659 51.091 15.304C51.8887 16.6421 52.2876 18.1474 52.2876 19.82C52.2876 21.5698 51.8887 23.1395 51.091 24.5291C50.3191 25.8929 49.264 26.9737 47.9259 27.7714C46.6136 28.5691 45.1082 28.9679 43.4099 28.9679H38.3149V38H31.7531ZM38.1991 23.2167H42.4835C43.0496 23.2167 43.5643 23.0752 44.0275 22.7921C44.4907 22.5091 44.8638 22.1231 45.1468 21.6342C45.4299 21.1453 45.5714 20.5791 45.5714 19.9358C45.5714 19.2668 45.4299 18.7007 45.1468 18.2375C44.8638 17.7743 44.4907 17.4141 44.0275 17.1567C43.5643 16.8994 43.0496 16.7707 42.4835 16.7707H38.1991V23.2167ZM64.884 38.386C62.6196 38.386 60.651 37.9357 58.9784 37.035C57.3058 36.1087 56.0063 34.8606 55.08 33.291C54.1536 31.6956 53.6904 29.8814 53.6904 27.8486C53.6904 26.2789 53.9477 24.8379 54.4624 23.5255C54.977 22.2132 55.6975 21.0809 56.6239 20.1288C57.5503 19.151 58.6439 18.4048 59.9048 17.8901C61.1914 17.3497 62.5938 17.0795 64.112 17.0795C65.553 17.0795 66.8654 17.3369 68.0491 17.8515C69.2585 18.3662 70.3007 19.0867 71.1756 20.013C72.0505 20.9394 72.7195 22.033 73.1827 23.2939C73.6459 24.5548 73.8518 25.9315 73.8003 27.424L73.7617 29.0837H57.4345L56.5467 25.6098H68.7439L68.0877 26.3432V25.5712C68.0362 24.9279 67.8304 24.3618 67.4701 23.8729C67.1356 23.3582 66.6853 22.9594 66.1192 22.6763C65.553 22.3933 64.9097 22.2518 64.1892 22.2518C63.1857 22.2518 62.3236 22.4576 61.6031 22.8693C60.9083 23.2553 60.3808 23.8343 60.0206 24.6063C59.6603 25.3525 59.4802 26.2789 59.4802 27.3854C59.4802 28.5176 59.7118 29.5083 60.175 30.3575C60.6639 31.1809 61.3587 31.8242 62.2593 32.2874C63.1857 32.7506 64.2793 32.9822 65.5402 32.9822C66.4151 32.9822 67.1871 32.8535 67.8561 32.5962C68.5509 32.3389 69.2971 31.9014 70.0948 31.2838L72.9897 35.3753C72.192 36.0701 71.3428 36.6362 70.4422 37.0736C69.5416 37.5111 68.6152 37.8327 67.6631 38.0386C66.7367 38.2702 65.8104 38.386 64.884 38.386ZM76.577 38V17.5041H82.444L82.637 21.6728L81.4018 22.136C81.6849 21.2096 82.1867 20.3733 82.9072 19.627C83.6534 18.8551 84.5412 18.2375 85.5705 17.7743C86.5998 17.3111 87.6805 17.0795 88.8128 17.0795C90.3567 17.0795 91.6562 17.4012 92.7112 18.0445C93.7662 18.6621 94.5639 19.6013 95.1043 20.8622C95.6447 22.0974 95.9149 23.6156 95.9149 25.4168V38H89.7005V25.9186C89.7005 25.0952 89.5847 24.4133 89.3531 23.8729C89.1215 23.3325 88.7613 22.9337 88.2724 22.6763C87.8092 22.3933 87.2302 22.2646 86.5354 22.2904C85.9951 22.2904 85.4933 22.3804 85.0301 22.5605C84.5669 22.7149 84.168 22.9594 83.8335 23.2939C83.499 23.6027 83.2288 23.963 83.023 24.3747C82.8428 24.7864 82.7528 25.2367 82.7528 25.7256V38H79.7035C78.983 38 78.3654 38 77.8507 38C77.3361 38 76.9115 38 76.577 38ZM99.9201 38V17.5041H105.787L105.98 21.6728L104.745 22.136C105.028 21.2096 105.53 20.3733 106.25 19.627C106.997 18.8551 107.884 18.2375 108.914 17.7743C109.943 17.3111 111.024 17.0795 112.156 17.0795C113.7 17.0795 114.999 17.4012 116.054 18.0445C117.109 18.6621 117.907 19.6013 118.447 20.8622C118.988 22.0974 119.258 23.6156 119.258 25.4168V38H113.044V25.9186C113.044 25.0952 112.928 24.4133 112.696 23.8729C112.465 23.3325 112.104 22.9337 111.615 22.6763C111.152 22.3933 110.573 22.2646 109.879 22.2904C109.338 22.2904 108.836 22.3804 108.373 22.5605C107.91 22.7149 107.511 22.9594 107.177 23.2939C106.842 23.6027 106.572 23.963 106.366 24.3747C106.186 24.7864 106.096 25.2367 106.096 25.7256V38H103.047C102.326 38 101.709 38 101.194 38C100.679 38 100.255 38 99.9201 38Z" fill="white"/>
</svg>
